<svg xmlns="http://www.w3.org/2000/svg" xmlns:xlink="http://www.w3.org/1999/xlink" width="94" height="94" viewBox="0 0 94 94"><defs><filter id="a" x="0" y="0" width="94" height="94" filterUnits="userSpaceOnUse"><feOffset dy="5" input="SourceAlpha"/><feGaussianBlur stdDeviation="5" result="b"/><feFlood flood-opacity="0.161"/><feComposite operator="in" in2="b"/><feComposite in="SourceGraphic"/></filter></defs><g transform="translate(-141 -611)"><g transform="matrix(1, 0, 0, 1, 141, 611)" filter="url(#a)"><circle cx="32" cy="32" r="32" transform="translate(15 10)" fill="#fff"/></g><path d="M3,6.133l21-.155a3.043,3.043,0,0,0,3.022-3A2.936,2.936,0,0,0,24.044.022l-21,.155a3.043,3.043,0,0,0-3.022,3A2.936,2.936,0,0,0,3,6.133Z" transform="translate(200.162 637.94) rotate(135)" fill="#ffc1f5"/><path d="M3,6.177l21,.155a2.936,2.936,0,0,0,2.978-2.956,3.043,3.043,0,0,0-3.022-3l-21-.155A2.936,2.936,0,0,0-.022,3.177,3.043,3.043,0,0,0,3,6.177Z" transform="translate(195.637 672.375) rotate(-135)" fill="#ffc1f5"/></g></svg>