<svg xmlns="http://www.w3.org/2000/svg" width="259.899" height="197.272" viewBox="0 0 259.899 197.272"><g transform="translate(0 0)"><path d="M221.128,63.076c-11.152,7.808-25.617,7.3-38.294,3.241s-24.319-11.3-36.671-16.437a119.159,119.159,0,0,0-32.216-8.4c-15.74-1.8-33.318.393-44.285,13.016C57.448,68.553,58.386,93.907,71.6,106.812c6.719,6.564,15.517,9.785,23.19,14.91s14.775,13.634,14.122,23.526c-.6,9.158-7.638,16.184-14.916,20.593-5.625,3.408-12.554,7.129-13.232,14.186-.656,6.829,5.169,12.18,10.732,15.223a60.926,60.926,0,0,0,58.584-.25c6.45-3.6,12.379-8.38,19.143-11.184,17.759-7.361,37.328.049,56.132,2.758a112.228,112.228,0,0,0,47.743-3.475c9.313-2.751,18.66-6.956,25.2-14.79,4.718-5.649,7.657-12.8,10.416-19.858q4.414-11.294,8.485-22.746c1.629-4.583,3.233-9.256,3.653-14.159.763-8.887-2.45-17.67-6.824-25.17-10.385-17.805-27.876-30.325-46.808-33.506S228.226,55.9,213.534,69.495" transform="translate(-61.065 -40.93)" fill="#e8f1ff" opacity="0.415"/><path d="M953,489.757l-.672-.389c.628-1.086-1.058-5.711-2.45-8.04a14.246,14.246,0,0,1-1.852-4.49,6.69,6.69,0,0,1,1.262-5.769c2.664-3.3,2.641-9.591,2.64-9.655l.776-.007c0,.269.027,6.634-2.813,10.149-1.888,2.337-1.668,5.49.653,9.373C951.643,482.76,953.979,488.072,953,489.757Z" transform="translate(-734.032 -360.021)" fill="#d4d5e0"/><path d="M944.147,396.871c.176-6.306-3.971-11.538-9.263-11.686s-9.725,4.844-9.9,11.15c-.171,6.123,3.734,11.233,8.8,11.66A3.349,3.349,0,0,1,933,409.72c-.769.785,2.418.068,2.418.068a5.659,5.659,0,0,1-.344-1.785C939.994,407.638,943.98,402.844,944.147,396.871Z" transform="translate(-716.669 -302.175)" fill="#2468e2"/><path d="M934.147,433.707c-.784-2.4-.061-4.809,1.613-5.533-.077.018-.154.038-.231.063-1.832.6-2.655,3.113-1.837,5.618.794,2.431,2.842,3.958,4.638,3.5C938.366,437.544,934.939,436.135,934.147,433.707Z" transform="translate(-723.042 -334.802)" fill="#fff" opacity="0.2"/><path d="M985.7,540.432l.776.033c.053-1.254,3.958-4.251,6.382-5.469a14.245,14.245,0,0,0,3.973-2.795,6.69,6.69,0,0,0,2.031-5.545c-.478-4.212,2.919-9.51,2.954-9.563l-.651-.423c-.147.226-3.583,5.583-3.074,10.073.339,2.985-1.539,5.528-5.582,7.558C990.6,535.258,985.782,538.487,985.7,540.432Z" transform="translate(-762.75 -401.959)" fill="#d4d5e0"/><path d="M1028.034,454.609c3.236-5.415,9.543-7.6,14.087-4.889s5.606,9.307,2.37,14.722c-3.142,5.258-9.179,7.474-13.687,5.113a3.349,3.349,0,0,0-.262,1.876c.227,1.075-2.076-1.241-2.076-1.241a5.661,5.661,0,0,0,1.248-1.322C1025.759,465.923,1024.969,459.739,1028.034,454.609Z" transform="translate(-793.454 -350.267)" fill="#2170fc"/><path d="M1064.576,507.425c1.949-1.6,2.633-4.025,1.608-5.534.056.056.11.115.161.177,1.225,1.488.569,4.052-1.465,5.726-1.975,1.625-4.523,1.815-5.79.462C1058.956,508.4,1062.6,509.048,1064.576,507.425Z" transform="translate(-818.441 -390.743)" fill="#fff" opacity="0.2"/><path d="M363.039,670.224l-.776.033c-.053-1.254-3.958-4.251-6.382-5.469a14.244,14.244,0,0,1-3.973-2.795,6.69,6.69,0,0,1-2.032-5.545c.478-4.212-2.919-9.51-2.954-9.563l.651-.423c.147.226,3.584,5.583,3.074,10.073-.339,2.985,1.539,5.528,5.582,7.558C358.134,665.051,362.957,668.279,363.039,670.224Z" transform="translate(-277.996 -500.455)" fill="#d4d5e0"/><path d="M307.842,584.4c-3.236-5.416-9.543-7.6-14.087-4.889s-5.605,9.307-2.37,14.722c3.142,5.258,9.179,7.474,13.687,5.113a3.348,3.348,0,0,1,.262,1.876c-.227,1.075,2.076-1.241,2.076-1.241a5.661,5.661,0,0,1-1.248-1.322C310.116,595.715,310.907,589.531,307.842,584.4Z" transform="translate(-234.428 -448.764)" fill="#236ced"/><path d="M310.1,637.217c-1.949-1.6-2.633-4.025-1.608-5.534-.056.056-.11.115-.161.177-1.225,1.488-.569,4.052,1.465,5.726,1.975,1.625,4.523,1.815,5.79.462C315.718,638.19,312.071,638.84,310.1,637.217Z" transform="translate(-248.241 -489.239)" fill="#fff" opacity="0.2"/><path d="M469.039,332.224l-.776.033c-.053-1.254-3.958-4.251-6.382-5.469a14.246,14.246,0,0,1-3.973-2.795,6.69,6.69,0,0,1-2.032-5.545c.478-4.212-2.919-9.51-2.954-9.563l.651-.423c.147.226,3.584,5.583,3.074,10.073-.339,2.985,1.539,5.528,5.582,7.558C464.134,327.051,468.957,330.279,469.039,332.224Z" transform="translate(-358.437 -243.954)" fill="#d4d5e0"/><path d="M413.842,246.4c-3.236-5.415-9.543-7.6-14.087-4.889s-5.606,9.307-2.37,14.722c3.142,5.258,9.179,7.474,13.687,5.113a3.348,3.348,0,0,1,.262,1.876c-.227,1.075,2.076-1.241,2.076-1.241a5.66,5.66,0,0,1-1.248-1.322C416.116,257.715,416.907,251.531,413.842,246.4Z" transform="translate(-314.869 -192.263)" fill="#2170fc"/><path d="M416.1,299.217c-1.949-1.6-2.633-4.025-1.608-5.534-.056.056-.11.115-.161.177-1.225,1.488-.569,4.052,1.465,5.726,1.975,1.625,4.523,1.815,5.79.462C421.718,300.19,418.071,300.84,416.1,299.217Z" transform="translate(-328.682 -232.739)" fill="#fff" opacity="0.2"/><path d="M432.039,475.224l-.776.033c-.053-1.254-3.958-4.251-6.382-5.469a14.244,14.244,0,0,1-3.973-2.795,6.69,6.69,0,0,1-2.032-5.545c.478-4.212-2.919-9.51-2.954-9.563l.651-.423c.147.226,3.584,5.583,3.074,10.073-.339,2.985,1.539,5.528,5.582,7.558C427.134,470.051,431.957,473.279,432.039,475.224Z" transform="translate(-330.358 -352.474)" fill="#d4d5e0"/><path d="M376.842,389.4c-3.236-5.415-9.543-7.6-14.087-4.889s-5.605,9.307-2.37,14.722c3.142,5.258,9.179,7.474,13.687,5.113a3.349,3.349,0,0,1,.262,1.876c-.227,1.075,2.076-1.241,2.076-1.241a5.662,5.662,0,0,1-1.248-1.322C379.116,400.715,379.907,394.531,376.842,389.4Z" transform="translate(-286.79 -300.782)" fill="#2170fc"/><path d="M379.1,442.217c-1.949-1.6-2.633-4.025-1.608-5.534-.056.056-.11.115-.161.177-1.225,1.488-.569,4.052,1.465,5.726,1.975,1.625,4.523,1.815,5.79.462C384.718,443.19,381.071,443.84,379.1,442.217Z" transform="translate(-300.603 -341.258)" fill="#fff" opacity="0.2"/><path d="M925.144,654.554l-.493-.6c.97-.8,1.016-5.719.531-8.388a14.245,14.245,0,0,1-.157-4.855,6.69,6.69,0,0,1,3.208-4.958c3.652-2.151,5.842-8.052,5.864-8.111l.729.266c-.092.253-2.305,6.221-6.2,8.514-2.588,1.524-3.491,4.554-2.682,9.005C926.327,647.524,926.648,653.318,925.144,654.554Z" transform="translate(-716.421 -486.172)" fill="#d4d5e0"/><path d="M951.775,569.014c2.381-5.842.336-12.2-4.566-14.2s-10.807,1.119-13.187,6.961c-2.311,5.672-.451,11.828,4.147,14.01a3.349,3.349,0,0,1-1.341,1.338c-1,.465,2.24.913,2.24.913a5.662,5.662,0,0,1,.306-1.792C944.1,577.635,949.52,574.547,951.775,569.014Z" transform="translate(-722.778 -430.45)" fill="#2170fc"/><path d="M939.544,593.487c.109-2.522,1.632-4.524,3.454-4.613-.079-.011-.158-.018-.239-.022-1.926-.083-3.579,1.982-3.693,4.614-.111,2.555,1.27,4.7,3.113,4.9C942.147,598.561,939.433,596.038,939.544,593.487Z" transform="translate(-727.356 -456.734)" fill="#fff" opacity="0.2"/><ellipse cx="72.926" cy="5.42" rx="72.926" ry="5.42" transform="translate(73.07 164.984)" fill="#ffc1f5" opacity="0.1"/><path d="M580.006,119.87v8.519h.893v-8.931Z" transform="translate(-440.154 -90.654)" fill="#53425a"/><path d="M655.792,127.758v7.9h1.237l-.275-8.793Z" transform="translate(-497.666 -96.275)" fill="#53425a"/><path d="M507.324,136.837l-.824.893v7.694h.824Z" transform="translate(-384.372 -103.843)" fill="#53425a"/><path d="M568.364,223.358h-5.358V207.971h4.122a2.067,2.067,0,0,0-.095.365,21.369,21.369,0,0,0,.039,4.462C567.431,217.377,568.364,223.358,568.364,223.358Z" transform="translate(-441.977 -167.694)" fill="#ffc1f5"/><path d="M641.536,211.248l-6.733.824V192.013h4.26c-.029.227-.047.484-.058.771a33.892,33.892,0,0,0,.266,4.528c.144,1.307.334,2.71.542,4.105.161,1.082.334,2.158.5,3.182C640.937,208.274,641.536,211.248,641.536,211.248Z" transform="translate(-496.462 -155.584)" fill="#ffc1f5"/><path d="M717.187,214.376l-6.6.55V198.851h4.534a4.309,4.309,0,0,0-.233,1.653,29.577,29.577,0,0,0,.354,3.959C715.891,208.966,717.187,214.376,717.187,214.376Z" transform="translate(-553.977 -160.773)" fill="#ffc1f5"/><path d="M555.369,113.093s.412,1.649-3.916,6.183-2.61,13.671,1.992,13.4c0,0,4.3.71,5.851-2.22a3.922,3.922,0,0,0-.275-4.019c-1.422-2.095-4.166-6.5-3.653-8.6Z" transform="translate(-431.317 -95.693)" fill="#ffc13d"/><path d="M559.333,138.935s.257,1.03-2.446,3.862-1.631,8.539,1.244,8.367c0,0,2.748.453,3.686-1.448a2.455,2.455,0,0,0-.206-2.453c-.84-1.237-2.41-3.753-2.313-5.134.015-.216.035-.432.035-.648Z" transform="translate(-436.151 -115.304)" fill="#fff" opacity="0.5"/><path d="M703.506,104.517s.412,1.649-3.916,6.183-2.611,13.671,1.992,13.4c0,0,4.3.71,5.851-2.22a3.922,3.922,0,0,0-.275-4.019c-1.422-2.095-4.166-6.5-3.653-8.6Z" transform="translate(-543.735 -89.185)" fill="#ffc13d"/><path d="M711.973,145.274s.193.772-1.833,2.894-1.222,6.4.932,6.27c0,0,2.014.332,2.738-1.039a1.836,1.836,0,0,0-.129-1.881c-.666-.98-1.95-3.04-1.709-4.025Z" transform="translate(-552.748 -120.114)" fill="#fff" opacity="0.5"/><path d="M623.57,79.787s.5,2-4.762,7.518-3.174,16.624,2.423,16.29c0,0,5.232.863,7.115-2.7a4.77,4.77,0,0,0-.334-4.888c-1.73-2.547-5.065-7.9-4.442-10.457Z" transform="translate(-482.022 -70.418)" fill="#ffc13d"/><path d="M632.125,121.059s.28,1.119-2.657,4.195-1.771,9.275,1.352,9.088c0,0,2.919.482,3.969-1.506a2.661,2.661,0,0,0-.186-2.727c-.965-1.421-2.826-4.407-2.478-5.834Z" transform="translate(-491.13 -101.738)" fill="#fff" opacity="0.5"/><path d="M567.072,213.946a55.868,55.868,0,0,0-4.066,5.2v-5.437c1.177-1.418,2.863-3.1,4.027-4.225A21.37,21.37,0,0,0,567.072,213.946Z" transform="translate(-441.977 -168.842)" fill="#fff" opacity="0.5"/><path d="M639.271,199.738A48.035,48.035,0,0,0,634.8,203.8v-5.2a24.056,24.056,0,0,1,4.2-3.394A33.892,33.892,0,0,0,639.271,199.738Z" transform="translate(-496.462 -158.01)" fill="#fff" opacity="0.5"/><path d="M640.318,234.2c-1.655,1.451-3.932,3.514-5.515,4.952v-3.72c1.653-1.521,3.675-3.273,5.01-4.415C639.974,232.1,640.147,233.172,640.318,234.2Z" transform="translate(-496.462 -185.181)" fill="#ffc1f5"/><path d="M715.248,209.665c-1.589,1.331-3.431,3.161-4.656,4.421V208.9a23.076,23.076,0,0,1,4.3-3.2A29.578,29.578,0,0,0,715.248,209.665Z" transform="translate(-553.977 -165.975)" fill="#fff" opacity="0.5"/><rect width="67.255" height="30.778" transform="translate(109.42 59.374)" fill="#c99398"/><path d="M582.114,287.17V291.8a9.481,9.481,0,0,1-4.384-.608,5.828,5.828,0,0,0-5.041.635c-3.875,2.533-6.9,2-9.01.738a7.762,7.762,0,0,0-7.024-.542,7.626,7.626,0,0,1-3.114.571,6.574,6.574,0,0,0-3.534.975c-3.182,1.927-6.354.812-8.347-.352a5.884,5.884,0,0,0-4.316-.622,6.217,6.217,0,0,1-1.917.157,7.192,7.192,0,0,0-4.233.913c-5.253,3.069-6.989-.657-8.023-1.206-1.169-.618-1.3,1.511-1.649,1.511s-1.511-2.815-1.787-1.855c-.128.451-1.21.993-2.323,1.443a4.634,4.634,0,0,1-2.554.264V287.17Z" transform="translate(-405.439 -227.796)" opacity="0.1"/><path d="M504.356,257.2s-11.023,4.919-5.141,11.065a4.58,4.58,0,0,0,5.015,1.047c1.112-.448,2.194-.99,2.323-1.442.275-.962,1.443,1.855,1.786,1.855s.481-2.13,1.649-1.511c1.034.548,2.77,4.275,8.022,1.205a7.2,7.2,0,0,1,4.235-.912,6.167,6.167,0,0,0,1.915-.157,5.89,5.89,0,0,1,4.316.622c1.993,1.165,5.165,2.279,8.346.354a6.573,6.573,0,0,1,3.536-.976,7.586,7.586,0,0,0,3.113-.571,7.773,7.773,0,0,1,7.025.542c2.11,1.261,5.136,1.8,9.01-.737a5.822,5.822,0,0,1,5.04-.636c2.817.944,6.732,1.546,6.377-2.581-.55-6.389-8.106-8.244-11.266-8.312s-8.381-.618-14.289,0-17.93.55-17.93.55S507.25,255.806,504.356,257.2Z" transform="translate(-392.256 -203.965)" fill="#f8f8fa"/><rect width="95.937" height="37.68" transform="translate(95.68 90.152)" fill="#c99398"/><path d="M582.114,388.156v6.428h-37.4q-.1-.012-.192-.019a5.035,5.035,0,0,0-.95.019H514.859v-5.731a76.047,76.047,0,0,0,9.394.853c4.128-.019,8.207-.876,12.343-.645,14.462.8,29.187,1.043,43.591-.67C580.828,388.315,581.471,388.235,582.114,388.156Z" transform="translate(-405.439 -304.432)" opacity="0.1"/><path d="M553.811,414.815v3.4a16.887,16.887,0,0,1-3.054-.878,5.035,5.035,0,0,0-2.815-.282c-.486.13-.929.385-1.41.534-2.007.627-4.1-.678-6.206-.686-2.086-.008-3.951,1.249-5.987,1.706-3.147.707-6.364-.534-9.379-1.684-1.22-.464-2.634-.907-3.774-.272-.5.278-.878.736-1.366,1.037-1.428.882-3.3.194-4.722-.7-.9-.563-1.991-1.224-2.941-.75a6.068,6.068,0,0,0-1.2,1.1c-1.286,1.152-3.31.843-4.887.142s-3.071-1.735-4.79-1.863c-2.424-.183-4.546,1.451-6.661,2.648s-5.047,1.906-6.772.192c-.571-.567-.993-1.387-1.774-1.583-1.292-.321-2.263,1.278-3.565,1.558-1.606.346-2.912-1.362-4.522-1.7-1.665-.348-3.215.81-4.685,1.665s-3.6,1.338-4.67.012c-.34-.422-.526-.991-.991-1.272a1.987,1.987,0,0,0-1.146-.183,11.643,11.643,0,0,0-4.041.967c-1.467.647-2.887,1.618-4.489,1.587-.029,0-.058,0-.087,0v-4.695Z" transform="translate(-362.195 -324.663)" opacity="0.1"/><path d="M469.712,389.932c-7.359.031-14.96-2.728-21.9-.274-2.517.89-5.071,3-4.805,5.654a3.878,3.878,0,0,0,3.656,3.374c1.6.031,3.022-.941,4.489-1.587a11.631,11.631,0,0,1,4.043-.968,2,2,0,0,1,1.146.185c.465.279.651.849.991,1.272,1.066,1.325,3.2.843,4.669-.013s3.02-2.014,4.685-1.666c1.608.336,2.915,2.045,4.521,1.7,1.3-.281,2.273-1.879,3.565-1.557.782.195,1.2,1.014,1.776,1.583,1.723,1.714,4.657,1.005,6.771-.193s4.237-2.831,6.661-2.649c1.72.129,3.215,1.164,4.791,1.864s3.6,1.009,4.885-.142a6.147,6.147,0,0,1,1.2-1.1c.95-.472,2.041.189,2.94.751,1.424.89,3.294,1.579,4.723.7.487-.3.865-.758,1.365-1.036,1.14-.635,2.555-.192,3.774.273,3.014,1.149,6.233,2.39,9.38,1.683,2.034-.458,3.9-1.713,5.986-1.706,2.1.008,4.2,1.313,6.206.687.48-.15.923-.4,1.408-.534a5.022,5.022,0,0,1,2.816.282,12.214,12.214,0,0,0,3.679.918A2.951,2.951,0,0,0,546.1,395.5a3.438,3.438,0,0,0-.786-2.713c-2.053-2.872-5.613-4.35-9.121-4.743s-7.044.155-10.549.572c-14.4,1.711-29.13,1.473-43.591.669C477.92,389.057,473.841,389.915,469.712,389.932Z" transform="translate(-350.899 -304.247)" fill="#f8f8fa"/><rect width="106.079" height="43.692" transform="translate(89.188 124.432)" fill="#c99398"/><path d="M544.737,535.5a125.2,125.2,0,0,1-16.09,2.391,11.053,11.053,0,0,0-5.428.414c-.033.01-.066.021-.1.033-3.343,1.183-6.22,3.988-9.765,3.943-2.83-.037-5.276-1.906-7.994-2.69a10.184,10.184,0,0,0-2.387-.39,10.478,10.478,0,0,0-1.647.045c-3.287.087-6.574.122-9.862.054-4.823-.1-9.635-.416-14.447-.734l-15.432-1.02-14.519-.958-3.565-.237c-1.28-.085-2.23.192-2.747-.952a4.094,4.094,0,0,1,.68-3.922c.647.012,1.3.058,1.941.1q14.7,1.036,29.4,2.143l-1.507.266a164.467,164.467,0,0,1,30.951-1.915c4.833.159,9.693.53,14.49-.087,3.372-.433,6.675-1.348,10.064-1.634,4.654-.394,9.318.41,13.922,1.212a28.03,28.03,0,0,1,2.877.61A9.337,9.337,0,0,0,544.737,535.5Z" transform="translate(-349.001 -412.261)" opacity="0.1"/><path d="M537.029,556.983v4.107c-1.323-.2-2.62-.39-3.423.55-.377.443-.523,1.045-.89,1.5a2.768,2.768,0,0,1-3.314.4,15.742,15.742,0,0,1-2.83-2.22,11.251,11.251,0,0,0-10.69-1.873c-3.343,1.183-6.22,3.988-9.765,3.943-2.83-.037-5.276-1.906-7.994-2.69a10.8,10.8,0,0,0-9.109,1.548c-1.925,1.366-3.743,3.487-6.086,3.217a8.258,8.258,0,0,1-3.3-1.608,17.577,17.577,0,0,0-6.919-2.564,5.822,5.822,0,0,0-3.2.247c-1.247.563-2.053,1.805-3.211,2.535-2.69,1.692-6.177.165-8.949-1.387s-6.206-3.141-8.953-1.546a20.321,20.321,0,0,1-1.886,1.212c-3.864,1.7-7.658-4.839-11.624-3.394-.894.326-1.608,1.028-2.488,1.391a2.982,2.982,0,0,1-1.443.2v-3.572Z" transform="translate(-341.763 -432.551)" opacity="0.1"/><path d="M454.615,535.426q-14.7-1.106-29.4-2.142a14.308,14.308,0,0,0-5.083.251,4.864,4.864,0,0,0-3.514,3.377,3.766,3.766,0,0,0,4.852,4.033c.88-.362,1.593-1.066,2.488-1.391,3.965-1.443,7.759,5.091,11.622,3.394a20.061,20.061,0,0,0,1.886-1.211c2.748-1.6,6.18-.006,8.953,1.546s6.26,3.077,8.95,1.385c1.159-.729,1.963-1.971,3.211-2.534a5.8,5.8,0,0,1,3.2-.247,17.547,17.547,0,0,1,6.919,2.564,8.266,8.266,0,0,0,3.3,1.606c2.343.271,4.162-1.851,6.085-3.217a10.807,10.807,0,0,1,9.11-1.548c2.718.784,5.165,2.653,7.994,2.69,3.545.046,6.423-2.759,9.765-3.943a11.256,11.256,0,0,1,10.691,1.874,15.681,15.681,0,0,0,2.83,2.219,2.767,2.767,0,0,0,3.314-.4c.367-.452.512-1.055.89-1.5,1.547-1.809,4.917.582,6.793-.884a2.569,2.569,0,0,0,.859-1.414,4.833,4.833,0,0,0-2.32-4.915,14.176,14.176,0,0,0-5.481-1.752c-4.6-.8-9.266-1.607-13.921-1.213-3.388.287-6.691,1.2-10.064,1.636-4.8.615-9.657.245-14.49.087a164.454,164.454,0,0,0-30.952,1.914" transform="translate(-330.84 -413.556)" fill="#f8f8fa"/><path d="M537.029,687.411v10.266q-6.09.312-12.182.62c-6.558.334-13.122.668-19.686.54-5.548-.109-11.084-.546-16.63-.719-11.661-.363-23.355.451-34.982-.482-3.722-.3-7.432-.775-11.16-.987a82.123,82.123,0,0,0-11.438.165v-9.672a9,9,0,0,1,1.053-.025,13.467,13.467,0,0,1,5.311,1.284,15.987,15.987,0,0,0,3.951,1.7c3.689.637,6.894-2.848,10.628-3.126,3.007-.223,5.709,1.643,8.289,3.2a2.556,2.556,0,0,0,1.62.515,3,3,0,0,0,1.261-.684,10.2,10.2,0,0,1,12.623.744,3.042,3.042,0,0,0,1.2.845c.946.251,1.8-.569,2.545-1.2,4.064-3.427,10.327-2.4,14.991.159a3.976,3.976,0,0,0,2.774.763,4.6,4.6,0,0,0,1.643-1.074c3.971-3.258,9.944-2.652,14.591-.462a2.709,2.709,0,0,0,1.416.385,3.105,3.105,0,0,0,1.5-.907,7.652,7.652,0,0,1,8.048-1,16.314,16.314,0,0,0,2.193,1.068c2.22.678,4.474-.7,6.69-1.4a11.493,11.493,0,0,1,3.749-.519Z" transform="translate(-341.763 -531.183)" opacity="0.1"/><path d="M532.837,698.818q-11.679.6-23.361,1.189c-6.558.334-13.122.668-19.686.54-5.548-.109-11.084-.546-16.63-.719-11.661-.363-23.355.451-34.982-.482-3.722-.3-7.432-.775-11.16-.987a83.027,83.027,0,0,0-12.584.266,13.085,13.085,0,0,1-3.137.357c-.934-.19-.577-.3-.272-1.181a7.826,7.826,0,0,0,.231-.8,23.875,23.875,0,0,0,.408-3.3c.136-1.434.346-3.013,1.533-3.988a5.088,5.088,0,0,1,3.436-.886,13.467,13.467,0,0,1,5.311,1.284,15.99,15.99,0,0,0,3.951,1.7c3.689.637,6.894-2.848,10.628-3.126,3.007-.223,5.709,1.643,8.289,3.2a2.556,2.556,0,0,0,1.62.515,3,3,0,0,0,1.261-.684,10.2,10.2,0,0,1,12.623.744,3.041,3.041,0,0,0,1.2.845c.946.251,1.8-.569,2.545-1.2,4.064-3.427,10.327-2.4,14.991.159a3.977,3.977,0,0,0,2.774.763,4.6,4.6,0,0,0,1.643-1.074c3.971-3.258,9.944-2.652,14.591-.462a2.71,2.71,0,0,0,1.416.385,3.1,3.1,0,0,0,1.5-.907,7.652,7.652,0,0,1,8.048-1,16.307,16.307,0,0,0,2.193,1.068c2.22.678,4.474-.7,6.69-1.4A11.583,11.583,0,0,1,532.378,697,11.051,11.051,0,0,1,532.837,698.818Z" transform="translate(-326.392 -532.481)" fill="#f8f8fa"/><path d="M532.837,725.047q-11.679.6-23.361,1.189c-6.558.334-13.122.668-19.686.54-5.548-.109-11.084-.546-16.63-.719-11.661-.363-23.355.451-34.982-.482-3.722-.3-7.432-.775-11.16-.987a83.019,83.019,0,0,0-12.584.266,13.085,13.085,0,0,1-3.137.357c-.934-.19-.577-.3-.272-1.181a7.825,7.825,0,0,0,.231-.8H532.378A11.049,11.049,0,0,1,532.837,725.047Z" transform="translate(-326.392 -558.711)" opacity="0.1"/><path d="M326.555,683.152H452.508a4.107,4.107,0,0,1,4.107,4.107v.53H322.448v-.53A4.107,4.107,0,0,1,326.555,683.152Z" transform="translate(-244.699 -518.429)" fill="#d4d5e0"/><rect width="0.756" height="2.088" rx="0.378" transform="translate(112.449 56.592) rotate(16.713)" fill="#ffc1f5"/><rect width="0.756" height="2.088" rx="0.378" transform="translate(101.463 86.845) rotate(16.713)" fill="#ffc1f5"/><rect width="0.756" height="2.088" rx="0.378" transform="translate(89.696 121.876) rotate(16.713)" fill="#ffc1f5"/><rect width="0.756" height="2.088" rx="0.378" transform="translate(119.118 124.203) rotate(16.713)" fill="#ffc1f5"/><rect width="0.756" height="2.088" rx="0.378" transform="translate(136.586 122.892) rotate(16.713)" fill="#ffc1f5"/><rect width="0.756" height="2.088" rx="0.378" transform="translate(161.211 125.549) rotate(16.713)" fill="#ffc1f5"/><rect width="0.756" height="2.088" rx="0.378" transform="translate(178.052 121.665) rotate(16.713)" fill="#ffc1f5"/><rect width="0.756" height="2.088" rx="0.378" transform="translate(104.086 123.323) rotate(16.713)" fill="#ffc1f5"/><rect width="0.756" height="2.088" rx="0.378" transform="translate(139.792 126.852) rotate(16.713)" fill="#ffc1f5"/><rect width="0.756" height="2.088" rx="0.378" transform="translate(154.526 122.892) rotate(16.713)" fill="#ffc1f5"/><rect width="0.756" height="2.088" rx="0.378" transform="translate(185.643 121.666) rotate(16.713)" fill="#ffc1f5"/><rect width="0.756" height="2.088" rx="0.378" transform="matrix(0.592, -0.806, 0.806, 0.592, 150.071, 56.971)" fill="#ffc1f5"/><rect width="0.756" height="2.088" rx="0.378" transform="matrix(0.592, -0.806, 0.806, 0.592, 140.896, 56.285)" fill="#ffc1f5"/><rect width="0.756" height="2.088" rx="0.378" transform="matrix(0.592, -0.806, 0.806, 0.592, 125.998, 56.285)" fill="#ffc1f5"/><rect width="0.756" height="2.088" rx="0.378" transform="matrix(0.592, -0.806, 0.806, 0.592, 106.153, 86.624)" fill="#ffc1f5"/><rect width="0.756" height="2.088" rx="0.378" transform="matrix(0.592, -0.806, 0.806, 0.592, 107.284, 89.689)" fill="#ffc1f5"/><rect width="0.756" height="2.088" rx="0.378" transform="matrix(0.592, -0.806, 0.806, 0.592, 131.774, 86.868)" fill="#ffc1f5"/><rect width="0.756" height="2.088" rx="0.378" transform="matrix(0.592, -0.806, 0.806, 0.592, 122.06, 126.757)" fill="#ffc1f5"/><rect width="0.756" height="2.088" rx="0.378" transform="matrix(0.592, -0.806, 0.806, 0.592, 158.298, 88.448)" fill="#ffc1f5"/><rect width="0.756" height="2.088" rx="0.378" transform="matrix(0.592, -0.806, 0.806, 0.592, 169.207, 89.896)" fill="#ffc1f5"/><rect width="0.756" height="2.088" rx="0.378" transform="matrix(0.592, -0.806, 0.806, 0.592, 165.906, 122.46)" fill="#ffc1f5"/><rect width="0.756" height="2.088" rx="0.378" transform="matrix(0.592, -0.806, 0.806, 0.592, 188.388, 126.337)" fill="#ffc1f5"/><rect width="0.756" height="2.088" rx="0.378" transform="matrix(0.592, -0.806, 0.806, 0.592, 112.137, 124.118)" fill="#ffc1f5"/><rect width="0.756" height="2.088" rx="0.378" transform="matrix(0.592, -0.806, 0.806, 0.592, 95.767, 122.671)" fill="#ffc1f5"/><rect width="0.756" height="2.088" rx="0.378" transform="matrix(0.592, -0.806, 0.806, 0.592, 128.253, 125.204)" fill="#ffc1f5"/><rect width="0.756" height="2.088" rx="0.378" transform="matrix(0.592, -0.806, 0.806, 0.592, 145.781, 124.118)" fill="#ffc1f5"/><rect width="0.756" height="2.088" rx="0.378" transform="matrix(0.578, 0.816, -0.816, 0.578, 169.579, 57.302)" fill="#ffc1f5"/><rect width="0.756" height="2.088" rx="0.378" transform="matrix(0.578, 0.816, -0.816, 0.578, 150.246, 60.146)" fill="#ffc1f5"/><rect width="0.756" height="2.088" rx="0.378" transform="matrix(0.578, 0.816, -0.816, 0.578, 118.275, 88.141)" fill="#ffc1f5"/><rect width="0.756" height="2.088" rx="0.378" transform="matrix(0.578, 0.816, -0.816, 0.578, 127.942, 89.091)" fill="#ffc1f5"/><rect width="0.756" height="2.088" rx="0.378" transform="matrix(0.578, 0.816, -0.816, 0.578, 146.628, 89.091)" fill="#ffc1f5"/><rect width="0.756" height="2.088" rx="0.378" transform="matrix(0.578, 0.816, -0.816, 0.578, 152.47, 87.109)" fill="#ffc1f5"/><rect width="0.756" height="2.088" rx="0.378" transform="matrix(0.578, 0.816, -0.816, 0.578, 166.297, 87.85)" fill="#ffc1f5"/><rect width="0.756" height="2.088" rx="0.378" transform="matrix(0.578, 0.816, -0.816, 0.578, 176.386, 86.27)" fill="#ffc1f5"/><rect width="0.756" height="2.088" rx="0.378" transform="matrix(0.578, 0.816, -0.816, 0.578, 190.085, 87.109)" fill="#ffc1f5"/><rect width="0.756" height="2.088" rx="0.378" transform="translate(147.354 55.058) rotate(16.713)" fill="#ffc1f5"/><rect width="0.756" height="2.088" rx="0.378" transform="translate(158.684 54.555) rotate(16.713)" fill="#ffc1f5"/><rect width="0.756" height="2.088" rx="0.378" transform="translate(143.129 59.136) rotate(16.713)" fill="#ffc1f5"/><rect width="0.756" height="2.088" rx="0.378" transform="translate(120.968 59.949) rotate(16.713)" fill="#ffc1f5"/><rect width="0.756" height="2.088" rx="0.378" transform="translate(160.422 58.12) rotate(16.713)" fill="#ffc1f5"/><rect width="0.756" height="2.088" rx="0.378" transform="translate(119.117 55.058) rotate(16.713)" fill="#ffc1f5"/><rect width="0.756" height="2.088" rx="0.378" transform="translate(130.758 57.105) rotate(16.713)" fill="#ffc1f5"/><rect width="0.756" height="2.088" rx="0.378" transform="translate(123.648 86.845) rotate(16.713)" fill="#ffc1f5"/><rect width="0.756" height="2.088" rx="0.378" transform="translate(141.038 86.845) rotate(16.713)" fill="#ffc1f5"/><rect width="0.756" height="2.088" rx="0.378" transform="translate(181.418 87.653) rotate(16.713)" fill="#ffc1f5"/><rect width="0.756" height="2.088" rx="0.378" transform="translate(185.643 87.653) rotate(16.713)" fill="#ffc1f5"/><rect width="0.756" height="2.088" rx="0.378" transform="translate(135.405 59.949) rotate(16.713)" fill="#ffc1f5"/><ellipse cx="6.896" cy="0.699" rx="6.896" ry="0.699" transform="translate(144.24 195.875)" fill="#ffc1f5" opacity="0.1"/><path d="M709.144,465.554l-.493-.6c.97-.8,1.016-5.719.531-8.388a14.245,14.245,0,0,1-.157-4.855,6.69,6.69,0,0,1,3.208-4.958c3.652-2.151,5.842-8.052,5.864-8.111l.729.266c-.092.253-2.305,6.221-6.2,8.514-2.588,1.524-3.491,4.554-2.682,9.005C710.327,458.524,710.648,464.318,709.144,465.554Z" transform="translate(-552.504 -342.744)" fill="#d4d5e0"/><path d="M735.775,380.014c2.38-5.842.336-12.2-4.567-14.2s-10.807,1.119-13.187,6.961c-2.311,5.672-.451,11.828,4.147,14.01a3.349,3.349,0,0,1-1.341,1.338c-1,.465,2.24.913,2.24.913a5.66,5.66,0,0,1,.306-1.792C728.1,388.635,733.52,385.547,735.775,380.014Z" transform="translate(-558.86 -287.022)" fill="#4586fa"/><path d="M723.544,404.487c.109-2.522,1.633-4.524,3.454-4.613-.079-.011-.158-.018-.239-.022-1.926-.083-3.579,1.982-3.693,4.614-.111,2.555,1.27,4.7,3.113,4.9C726.147,409.561,723.433,407.038,723.544,404.487Z" transform="translate(-563.438 -313.306)" fill="#fff" opacity="0.2"/><path d="M832.144,629.554l-.493-.6c.97-.8,1.016-5.719.531-8.388a14.245,14.245,0,0,1-.157-4.855,6.69,6.69,0,0,1,3.208-4.958c3.652-2.151,5.842-8.052,5.864-8.111l.729.266c-.092.253-2.305,6.221-6.2,8.514-2.588,1.524-3.491,4.554-2.682,9.005C833.327,622.524,833.648,628.318,832.144,629.554Z" transform="translate(-645.846 -467.2)" fill="#d4d5e0"/><path d="M858.775,544.014c2.38-5.842.336-12.2-4.567-14.2s-10.807,1.119-13.187,6.961c-2.311,5.672-.451,11.828,4.147,14.01a3.349,3.349,0,0,1-1.341,1.338c-1,.465,2.24.913,2.24.913a5.661,5.661,0,0,1,.306-1.792C851.1,552.635,856.52,549.547,858.775,544.014Z" transform="translate(-652.202 -411.478)" fill="#2470f5"/><path d="M846.544,568.487c.109-2.522,1.633-4.524,3.454-4.613-.079-.011-.158-.018-.239-.022-1.926-.083-3.579,1.982-3.693,4.614-.111,2.555,1.27,4.7,3.113,4.9C849.147,573.561,846.433,571.038,846.544,568.487Z" transform="translate(-656.78 -437.762)" fill="#fff" opacity="0.2"/><path d="M644.144,312.554l-.493-.6c.97-.8,1.016-5.719.531-8.388a14.243,14.243,0,0,1-.157-4.855,6.69,6.69,0,0,1,3.208-4.958c3.652-2.151,5.842-8.052,5.864-8.111l.729.266c-.092.253-2.305,6.221-6.2,8.514-2.588,1.524-3.491,4.554-2.682,9.005C645.327,305.524,645.648,311.318,644.144,312.554Z" transform="translate(-503.176 -226.636)" fill="#d4d5e0"/><path d="M670.775,227.014c2.381-5.842.336-12.2-4.566-14.2s-10.807,1.119-13.187,6.961c-2.311,5.672-.451,11.828,4.147,14.01a3.349,3.349,0,0,1-1.341,1.338c-1,.465,2.24.913,2.24.913a5.663,5.663,0,0,1,.306-1.792C663.1,235.635,668.52,232.547,670.775,227.014Z" transform="translate(-509.533 -170.914)" fill="#2170fc"/><path d="M658.544,251.487c.109-2.522,1.632-4.524,3.454-4.613-.079-.011-.158-.018-.238-.022-1.926-.084-3.579,1.982-3.693,4.614-.111,2.555,1.27,4.7,3.113,4.9C661.147,256.561,658.433,254.038,658.544,251.487Z" transform="translate(-514.111 -197.198)" fill="#fff" opacity="0.2"/></g></svg>