<svg xmlns="http://www.w3.org/2000/svg" xmlns:xlink="http://www.w3.org/1999/xlink" width="211.509" height="176.736" viewBox="0 0 211.509 176.736"><defs><linearGradient id="a" x1="0.5" y1="1" x2="0.5" gradientUnits="objectBoundingBox"><stop offset="0" stop-color="gray" stop-opacity="0.251"/><stop offset="0.54" stop-color="gray" stop-opacity="0.122"/><stop offset="1" stop-color="gray" stop-opacity="0.102"/></linearGradient></defs><g transform="translate(-0.03 0.005)"><path d="M159.766,214.973c7.186-6.386,18.442-7.7,28.7-7.19,32.215,1.6,61.279,17.153,86.425,34.725,9.1,6.368,18.067,13.229,23.977,22,12.03,17.848,8.462,42.573-8.265,57.277-5.692,5-12.591,8.838-19.663,12.237-12.593,6.043-26.182,10.9-40.475,12.277-10.194.985-20.5.186-30.644-1.188-28.311-3.841-56.1-12.342-79.394-26.857-10.215-6.37-19.843-14.292-24.056-24.6S94.841,270.3,105.273,264.2c4.313-2.523,9.472-3.661,14.522-4.732,7.434-1.575,14.988-3.138,21.695-6.33,6.928-3.307,15.132-9.7,13.762-17.021C153.773,228.25,152.6,221.36,159.766,214.973Z" transform="translate(-94.43 -170.004)" fill="#e8f1ff" opacity="0.418"/><path d="M346.544,797.673s-9.622-.579-8.493,6.167a1.649,1.649,0,0,0,.856,1.734s.017-.5.987-.331a4.574,4.574,0,0,0,1.046.05,2.186,2.186,0,0,0,1.28-.529h0s2.7-1.117,3.765-5.539c0,0,.78-.966.749-1.213l-1.625.692a2.922,2.922,0,0,1,.119,2.146s-.052-2.092-.366-2.052c-.063,0-.837.406-.837.406s.956,2.042.234,3.525c0,0,.274-2.51-.533-3.378l-1.157.667a5.054,5.054,0,0,1,.358,3.83s.195-2.64-.6-3.667l-1.046.81s1.046,2.077.418,3.5c0,0-.084-3.071-.628-3.3a6.386,6.386,0,0,0-1.046,1.127s.72,1.508.274,2.3c0,0-.274-2.048-.5-2.056a6.8,6.8,0,0,0-1,2.284,4.935,4.935,0,0,1,.778-2.414,2.713,2.713,0,0,0-1.383.715s.14-.958,1.607-1.046a6.338,6.338,0,0,1,.946-1.092,5.94,5.94,0,0,0-2.341.27,2.633,2.633,0,0,1,2.609-.494l1.023-.837a8.421,8.421,0,0,0-2.732.027s.935-.8,3.008-.209l1.113-.665a10.065,10.065,0,0,0-2.611-.226,3.987,3.987,0,0,1,2.929.046l.805-.356s-1.2-.234-1.55-.272-.368-.134-.368-.134a4.153,4.153,0,0,1,2.251.251A9.819,9.819,0,0,0,346.544,797.673Z" transform="translate(-286.993 -636.566)" fill="#2170fc"/><ellipse cx="6.813" cy="1.153" rx="6.813" ry="1.153" transform="translate(46.114 168.443)" fill="#25abf7" opacity="0.1"/><path d="M449.02,712.723s-5.428-.328-4.788,3.475a.929.929,0,0,0,.481.979s0-.282.556-.186a2.64,2.64,0,0,0,.59.027,1.228,1.228,0,0,0,.722-.3h0A4.3,4.3,0,0,0,448.7,713.6s.439-.544.418-.682l-.916.391a1.647,1.647,0,0,1,.067,1.209s-.031-1.186-.209-1.159c-.036,0-.475.23-.475.23a2.71,2.71,0,0,1,.132,1.987s.155-1.418-.3-1.9l-.644.377a2.876,2.876,0,0,1,.209,2.159,4.057,4.057,0,0,0-.339-2.069l-.584.456a2.778,2.778,0,0,1,.23,1.977s-.046-1.732-.358-1.864a3.537,3.537,0,0,0-.588.628s.4.849.153,1.3c0,0-.153-1.155-.28-1.159a3.822,3.822,0,0,0-.561,1.286,2.78,2.78,0,0,1,.437-1.362,1.534,1.534,0,0,0-.778.406s.077-.542.9-.59a3.456,3.456,0,0,1,.533-.615,3.379,3.379,0,0,0-1.32.153,1.474,1.474,0,0,1,1.464-.278l.577-.471a4.761,4.761,0,0,0-1.54.015,1.873,1.873,0,0,1,1.694-.121l.628-.377a5.651,5.651,0,0,0-1.464-.126,2.254,2.254,0,0,1,1.657.025l.448-.209s-.676-.134-.872-.155-.209-.075-.209-.075a2.343,2.343,0,0,1,1.27.142A6.422,6.422,0,0,0,449.02,712.723Z" transform="translate(-370.993 -569.391)" fill="#2170fc"/><ellipse cx="3.841" cy="0.648" rx="3.841" ry="0.648" transform="translate(70.446 147.47)" fill="#25abf7" opacity="0.1"/><path d="M292.073,728.488s-6.554-.393-5.782,4.2a1.121,1.121,0,0,0,.582,1.18s.013-.341.674-.226a3.031,3.031,0,0,0,.711.036,1.464,1.464,0,0,0,.87-.36h0s1.843-.761,2.558-3.765c0,0,.531-.657.51-.837l-1.107.473a1.989,1.989,0,0,1,.082,1.464s-.038-1.431-.249-1.4c-.044,0-.575.276-.575.276a3.266,3.266,0,0,1,.159,2.4s.186-1.711-.362-2.3l-.778.454a3.445,3.445,0,0,1,.245,2.609,4.9,4.9,0,0,0-.408-2.5l-.7.55a3.367,3.367,0,0,1,.278,2.387s-.059-2.092-.433-2.249a4.3,4.3,0,0,0-.711.768s.49,1.027.186,1.569c0,0-.186-1.393-.339-1.4a4.6,4.6,0,0,0-.678,1.556,3.347,3.347,0,0,1,.529-1.648,1.841,1.841,0,0,0-.941.487s.1-.653,1.094-.711a4.246,4.246,0,0,1,.644-.743,4.065,4.065,0,0,0-1.594.184,1.791,1.791,0,0,1,1.774-.337l.7-.554a5.71,5.71,0,0,0-1.86.019,2.259,2.259,0,0,1,2.048-.149l.759-.454a6.938,6.938,0,0,0-1.778-.153,2.734,2.734,0,0,1,2,.031l.542-.243s-.816-.161-1.046-.186-.253-.092-.253-.092a2.837,2.837,0,0,1,1.533.172A6.828,6.828,0,0,0,292.073,728.488Z" transform="translate(-246.083 -581.857)" fill="#2170fc"/><ellipse cx="4.638" cy="0.784" rx="4.638" ry="0.784" transform="translate(36.836 151.626)" fill="#25abf7" opacity="0.1"/><path d="M562.184,220.81c-1.732.671-3.688,1.586-4.138,3.387a4.144,4.144,0,0,0,.109,2.092,6.9,6.9,0,0,0,3.326,4.134c1.989,1.069,4.46,1.127,6.276,2.458a5.405,5.405,0,0,1,2.109,3.393,8.74,8.74,0,0,0,.316,1.7c.559,1.445,2.316,2.008,3.864,2.092a3.511,3.511,0,0,1,2.13.529,3.072,3.072,0,0,1,.573.736c1.2,1.922,2.452,3.975,2.464,6.248a10.366,10.366,0,0,1-1.634,5.02c-1.148,2.014-2.56,3.993-2.824,6.3-.31,2.719,1.046,5.343,1.222,8.068a9.622,9.622,0,0,1-3.221,7.754" transform="translate(-460.973 -180.385)" fill="none" stroke="#444053" stroke-miterlimit="10" stroke-width="1"/><path d="M424.8,48.42c1.33,9.689,1.1,21.875-7.6,23.069s-22.577-9.056-23.916-18.743,4.644-18.511,13.344-19.705S423.473,38.733,424.8,48.42Z" transform="translate(-330.603 -31.788)" fill="#2170fc"/><path d="M519.608,207.081s-1.422.644-1.638-.741a2.525,2.525,0,0,1-.025-.372,3.721,3.721,0,0,0-.236-1.255,4.53,4.53,0,0,0-.18-.418,5.985,5.985,0,0,0-1.2-1.659l3.347-2.556s-.59,2.063-.027,2.558a.435.435,0,0,0,.3.1.837.837,0,0,0,.3-.056c.115-.04.22-.071.316-.1,1.132-.289,1.046.433,1.046.433C522.5,204.588,519.608,207.081,519.608,207.081Z" transform="translate(-428.051 -163.991)" fill="#25abf7"/><path d="M524.494,212.378l-2.234,1.977a4.545,4.545,0,0,0-.18-.418c.6-.443,1.531-1.184,2.117-1.657A.435.435,0,0,0,524.494,212.378Z" transform="translate(-432.598 -173.639)" fill="#444053"/><path d="M525.808,216.266s-1.422.644-1.638-.741a4.684,4.684,0,0,0,1.552-.946,4.02,4.02,0,0,0,1.033-2.818c1.132-.289,1.046.433,1.046.433C528.7,213.773,525.808,216.266,525.808,216.266Z" transform="translate(-434.251 -173.176)" fill="#25abf7"/><path d="M525.808,216.266s-1.422.644-1.638-.741a4.684,4.684,0,0,0,1.552-.946,4.02,4.02,0,0,0,1.033-2.818c1.132-.289,1.046.433,1.046.433C528.7,213.773,525.808,216.266,525.808,216.266Z" transform="translate(-434.251 -173.176)" opacity="0.1"/><path d="M414.432,58.47s-4.217,2.132-3.592,5.464a3.774,3.774,0,0,1,1.464-.849,2.4,2.4,0,0,0,1.029-.435A6.253,6.253,0,0,1,414.432,58.47Z" transform="translate(-344.578 -52.004)" fill="#fff" opacity="0.1"/><path d="M409.129,285.407a12.088,12.088,0,0,1-.983,3.29c-.128.293-.268.59-.418.883-3.939,7.56-14.886,14.944-23.061,13.836-7.633-1.035-13.528-6.29-15.116-12.725-.077-.314-.146-.628-.209-.954a14.5,14.5,0,0,1-.088-4.456c.958-7.037,6.9-12.3,14.279-13.352a17.946,17.946,0,0,1,1.964-.18c.318-.015.64-.019.964-.015a19.223,19.223,0,0,1,2.477.176c.454.063.918.128,1.383.209a1.13,1.13,0,0,1,.117.019,52.41,52.41,0,0,1,8.332,1.941c.837.278,1.646.575,2.424.914.542.228,1.069.473,1.577.732a12.935,12.935,0,0,1,5.278,4.418c.113.18.209.362.314.552l.044.088a7.323,7.323,0,0,1,.738,2.424A8.4,8.4,0,0,1,409.129,285.407Z" transform="translate(-311.638 -220.655)" fill="#2170fc"/><path d="M555.7,308.443a1.881,1.881,0,0,1-.366-.073,3.652,3.652,0,0,0-1.276-.107,3.48,3.48,0,0,0-.464.059,5.6,5.6,0,0,0-1.318.406,5.332,5.332,0,0,0-.6.3l-1.081-2.692-.015-.04-.469-1.167a7.917,7.917,0,0,0,1.065.533c.515.209,1.086.37,1.389.176a.458.458,0,0,0,.18-.259.8.8,0,0,0,.025-.3c0-.121-.01-.23-.01-.333.029-1.163.7-.893.7-.893a2.331,2.331,0,0,1,2.125,1.069c.088.1.172.209.249.31a10.338,10.338,0,0,1,1.013,1.636S557.089,308.612,555.7,308.443Z" transform="translate(-454.765 -246.183)" fill="#25abf7"/><path d="M563.369,314.168a3.48,3.48,0,0,0-.464.059c-.209-.592-.586-1.464-.879-2.136-.019-.05-.04-.094-.059-.142s-.063-.142-.088-.209a.458.458,0,0,0,.18-.259l.2.406.077.161Z" transform="translate(-464.073 -252.088)" fill="#444053"/><path d="M565.731,308.443a4.7,4.7,0,0,0-.5-1.749,3.724,3.724,0,0,0-.713-.837,2.955,2.955,0,0,0-.255-.209,3.229,3.229,0,0,0-1.464-.7c.029-1.163.705-.893.705-.893a2.331,2.331,0,0,1,2.125,1.069c.088.1.172.209.249.31a10.33,10.33,0,0,1,1.012,1.636S567.124,308.612,565.731,308.443Z" transform="translate(-464.8 -246.183)" fill="#25abf7"/><path d="M565.731,308.443a4.7,4.7,0,0,0-.5-1.749,3.724,3.724,0,0,0-.713-.837,2.955,2.955,0,0,0-.255-.209,3.229,3.229,0,0,0-1.464-.7c.029-1.163.705-.893.705-.893a2.331,2.331,0,0,1,2.125,1.069c.088.1.172.209.249.31a10.33,10.33,0,0,1,1.012,1.636S567.124,308.612,565.731,308.443Z" transform="translate(-464.8 -246.183)" opacity="0.1"/><path d="M385.84,371.67s.923,4.636,4.3,4.924a3.7,3.7,0,0,1-.418-1.63,2.381,2.381,0,0,0-.142-1.111A6.279,6.279,0,0,1,385.84,371.67Z" transform="translate(-324.858 -299.687)" fill="#fff" opacity="0.1"/><path d="M504.053,51.346a48.647,48.647,0,0,1-6.5,11.162,14.224,14.224,0,0,1-6.667,4.96,7.491,7.491,0,0,1-3.238.209,8.158,8.158,0,0,1-2.117-.628c-4.751-2.081-8.957-8.5-10.8-15.271-1.274-4.692-1.416-9.535.19-13.2,3.924-8.945,13.624-13.348,21.678-9.825S507.976,42.388,504.053,51.346Z" transform="translate(-394.379 -27.54)" fill="#1b63e2"/><path d="M541.409,217.725c-.063,1.807-3.83,2.429-3.83,2.429s-1.55-.2-1.006-1.487a2.365,2.365,0,0,1,.169-.331,3.739,3.739,0,0,0,.46-1.2c.029-.153.054-.3.069-.454a6.142,6.142,0,0,0-.029-1.385,5.125,5.125,0,0,0-.128-.655l4.184-.439a8.823,8.823,0,0,0-.818.885c-.345.439-.644.943-.542,1.284a.418.418,0,0,0,.209.245.779.779,0,0,0,.282.109,2.8,2.8,0,0,1,.318.082C541.855,217.147,541.409,217.725,541.409,217.725Z" transform="translate(-443.968 -175.157)" fill="#25abf7"/><path d="M542.989,224.815l-2.929.519c.029-.153.054-.3.069-.454.743-.065,1.92-.209,2.667-.31A.419.419,0,0,0,542.989,224.815Z" transform="translate(-446.817 -183.358)" fill="#444053"/><path d="M541.409,227.57c-.063,1.807-3.83,2.429-3.83,2.429s-1.55-.2-1.006-1.487a4.675,4.675,0,0,0,1.818,0,4.034,4.034,0,0,0,2.349-1.862C541.855,226.993,541.409,227.57,541.409,227.57Z" transform="translate(-443.968 -185.003)" fill="#25abf7"/><path d="M541.409,227.57c-.063,1.807-3.83,2.429-3.83,2.429s-1.55-.2-1.006-1.487a4.675,4.675,0,0,0,1.818,0,4.034,4.034,0,0,0,2.349-1.862C541.855,226.993,541.409,227.57,541.409,227.57Z" transform="translate(-443.968 -185.003)" opacity="0.1"/><path d="M522.356,39.094s-4.709-.385-5.916,2.786a3.78,3.78,0,0,1,1.686.033,2.362,2.362,0,0,0,1.107.167A6.231,6.231,0,0,1,522.356,39.094Z" transform="translate(-428.138 -36.67)" fill="#fff" opacity="0.1"/><g transform="translate(42.231 45.124)" opacity="0.1"><path d="M300.07,314.235a3.772,3.772,0,0,0,.431,1.625c-3.376-.287-4.3-4.92-4.3-4.92a6.281,6.281,0,0,0,3.728,2.184A2.372,2.372,0,0,1,300.07,314.235Z" transform="translate(-296.2 -296.785)"/><path d="M462.093,252.509l-1.563-3.9a7.905,7.905,0,0,0,1.065.533,7.446,7.446,0,0,1,1.094,3.065A5.568,5.568,0,0,0,462.093,252.509Z" transform="translate(-426.155 -247.493)"/><path d="M390.429,272.091c-.015.186-.033.381-.059.573a12.068,12.068,0,0,1-.987,3.288c-.128.293-.27.59-.418.885-3.376,6.485-11.9,12.838-19.425,13.806a14.455,14.455,0,0,1-.293-5.41c.958-7.037,6.9-12.3,14.279-13.352a19.475,19.475,0,0,1,5.405-.019C389.425,271.94,389.927,272.009,390.429,272.091Z" transform="translate(-353.864 -265.74)"/><path d="M466.065,247.7a1.909,1.909,0,0,1-.368-.073,3.644,3.644,0,0,0-1.274-.107,3.394,3.394,0,0,0-.464.059,6.053,6.053,0,0,0-1.916.707l-1.563-3.9a7.908,7.908,0,0,0,1.065.533c.513.209,1.084.37,1.387.176a.471.471,0,0,0,.182-.259.846.846,0,0,0,.023-.3V244.2c.029-1.163.7-.9.7-.9,1.755-.431,3.387,3.014,3.387,3.014S467.456,247.869,466.065,247.7Z" transform="translate(-426.115 -243.272)"/><path d="M473.691,253.444a3.4,3.4,0,0,0-.464.059c-.259-.7-.728-1.789-1.027-2.483a.471.471,0,0,0,.182-.259Z" transform="translate(-435.383 -249.194)"/><path d="M476.077,247.7a4.757,4.757,0,0,0-.5-1.749,4.013,4.013,0,0,0-2.437-1.749c.029-1.163.7-.9.7-.9,1.755-.431,3.387,3.014,3.387,3.014S477.468,247.869,476.077,247.7Z" transform="translate(-436.127 -243.272)"/><path d="M476.077,247.7a4.757,4.757,0,0,0-.5-1.749,4.013,4.013,0,0,0-2.437-1.749c.029-1.163.7-.9.7-.9,1.755-.431,3.387,3.014,3.387,3.014S477.468,247.869,476.077,247.7Z" transform="translate(-436.127 -243.272)" opacity="0.1"/><path d="M300.5,315.86c-3.376-.287-4.3-4.92-4.3-4.92a6.281,6.281,0,0,0,3.728,2.184,2.372,2.372,0,0,1,.142,1.111A3.772,3.772,0,0,0,300.5,315.86Z" transform="translate(-296.2 -296.785)" opacity="0.1"/></g><path d="M319.45,220.006c-.019.128-.04.255-.059.387a12.566,12.566,0,0,1-.931,2.9c-.04.088-.079.18-.123.268-.092.209-.195.418-.3.615-3.41,6.543-12.06,12.951-19.63,13.84a13.442,13.442,0,0,1-3.431,0c-9.689-1.316-16.586-9.436-15.409-18.134.958-7.037,6.9-12.3,14.281-13.352.228-.033.458-.063.692-.088a19.564,19.564,0,0,1,4.711.069,54.883,54.883,0,0,1,9.832,2.161q.989.331,1.929.707c.167.065.333.138.494.209.3.128.6.266.9.4.234.107.458.22.684.333a12.948,12.948,0,0,1,5.278,4.418,7.436,7.436,0,0,1,1.094,3.062,8.416,8.416,0,0,1,0,2.2Z" transform="translate(-240.71 -168.937)" fill="#3a80fc"/><path d="M466.065,243.032a1.905,1.905,0,0,1-.368-.073,3.7,3.7,0,0,0-1.274-.109,3.763,3.763,0,0,0-.464.061,5.725,5.725,0,0,0-1.32.4,5.8,5.8,0,0,0-.6.3l-1.563-3.9a8.19,8.19,0,0,0,1.065.533c.513.209,1.084.37,1.387.176a.471.471,0,0,0,.182-.259.846.846,0,0,0,.023-.3v-.333c.029-1.163.7-.893.7-.893,1.755-.431,3.387,3.014,3.387,3.014S467.456,243.2,466.065,243.032Z" transform="translate(-383.884 -194.455)" fill="#25abf7"/><path d="M473.691,248.772a3.762,3.762,0,0,0-.464.061c-.259-.7-.728-1.789-1.027-2.483a.471.471,0,0,0,.182-.259Z" transform="translate(-393.152 -200.376)" fill="#444053"/><path d="M476.077,243.032a4.746,4.746,0,0,0-.5-1.749,4.024,4.024,0,0,0-2.437-1.751c.029-1.163.7-.893.7-.893,1.755-.431,3.387,3.014,3.387,3.014S477.468,243.2,476.077,243.032Z" transform="translate(-393.896 -194.455)" fill="#25abf7"/><path d="M476.077,243.032a4.746,4.746,0,0,0-.5-1.749,4.024,4.024,0,0,0-2.437-1.751c.029-1.163.7-.893.7-.893,1.755-.431,3.387,3.014,3.387,3.014S477.468,243.2,476.077,243.032Z" transform="translate(-393.896 -194.455)" opacity="0.1"/><path d="M296.19,306.26s.925,4.633,4.3,4.924a3.768,3.768,0,0,1-.429-1.63,2.38,2.38,0,0,0-.142-1.111A6.262,6.262,0,0,1,296.19,306.26Z" transform="translate(-253.961 -247.96)" fill="#fff" opacity="0.1"/><g transform="translate(45.976 14.486)" opacity="0.1"><path d="M316.517,101.121a2.4,2.4,0,0,1-.837.747,3.8,3.8,0,0,0-1.1,1.272c-1.673-2.952,1.642-6.33,1.642-6.33A6.275,6.275,0,0,0,316.517,101.121Z" transform="translate(-314.104 -96.81)"/><path d="M366.069,209.565q.816.345,1.579.734a14.639,14.639,0,0,1-1.954.362c-5.278.628-12.037-1.023-17.275-4.15a19.454,19.454,0,0,1,5.4-.019,54.883,54.883,0,0,1,9.832,2.161C364.481,208.932,365.293,209.229,366.069,209.565Z" transform="translate(-341.242 -183.407)"/><path d="M459.694,198.428a7.5,7.5,0,0,1-1.908,2.634,4.856,4.856,0,0,0-.586-.322l2.337-3.5A8.206,8.206,0,0,0,459.694,198.428Z" transform="translate(-427.267 -176.232)"/><path d="M461.727,203.9s-1.138,1.071-1.789-.169a2.584,2.584,0,0,1-.146-.347,3.751,3.751,0,0,0-.628-1.115c-.1-.121-.209-.238-.307-.347a5.63,5.63,0,0,0-1.081-.86,4.852,4.852,0,0,0-.586-.322l2.337-3.5a8.193,8.193,0,0,0,.161,1.188c.113.548.307,1.1.64,1.255a.466.466,0,0,0,.312,0,.8.8,0,0,0,.266-.148c.1-.073.184-.14.268-.195.977-.628,1.134.073,1.134.073C463.654,200.612,461.727,203.9,461.727,203.9Z" transform="translate(-427.259 -176.232)"/><path d="M466.932,208.88l-1.475,2.594c-.1-.121-.209-.238-.307-.347.429-.611,1.065-1.613,1.464-2.247a.467.467,0,0,0,.318,0Z" transform="translate(-433.553 -185.437)"/><path d="M472.119,210.821s-1.138,1.071-1.789-.169a4.746,4.746,0,0,0,1.163-1.4,4.024,4.024,0,0,0,.069-3c.977-.628,1.134.073,1.134.073C474.045,207.533,472.119,210.821,472.119,210.821Z" transform="translate(-437.65 -183.153)"/><path d="M472.119,210.821s-1.138,1.071-1.789-.169a4.746,4.746,0,0,0,1.163-1.4,4.024,4.024,0,0,0,.069-3c.977-.628,1.134.073,1.134.073C474.045,207.533,472.119,210.821,472.119,210.821Z" transform="translate(-437.65 -183.153)" opacity="0.1"/><path d="M316.517,101.121a2.4,2.4,0,0,1-.837.747,3.8,3.8,0,0,0-1.1,1.272c-1.673-2.952,1.642-6.33,1.642-6.33A6.275,6.275,0,0,0,316.517,101.121Z" transform="translate(-314.104 -96.81)" opacity="0.1"/></g><path d="M338.766,84.669a7.482,7.482,0,0,1-1.908,2.634,8.282,8.282,0,0,1-1.832,1.232,11.613,11.613,0,0,1-2.96.987c-.418.088-.837.151-1.28.209a.23.23,0,0,0-.084.01c-5.033.582-11.4-.91-16.5-3.765-3.475-1.939-6.361-4.506-7.853-7.48-4.378-8.744-1.569-19.019,6.276-22.954s17.764-.038,22.14,8.715a55.625,55.625,0,0,1,3.765,9.338c.084.289.161.571.234.856C339.758,78.239,340,81.875,338.766,84.669Z" transform="translate(-260.363 -48.476)" fill="#2170fc"/><path d="M461.727,201.57s-1.138,1.069-1.789-.172a2.475,2.475,0,0,1-.146-.347,3.777,3.777,0,0,0-.628-1.115,4.456,4.456,0,0,0-.307-.345,5.648,5.648,0,0,0-1.081-.862,5.248,5.248,0,0,0-.586-.322l2.337-3.5a8.186,8.186,0,0,0,.161,1.186c.113.548.307,1.1.64,1.255a.454.454,0,0,0,.312,0,.836.836,0,0,0,.266-.146c.1-.073.184-.142.268-.2.977-.628,1.134.073,1.134.073C463.654,198.276,461.727,201.57,461.727,201.57Z" transform="translate(-381.282 -159.903)" fill="#25abf7"/><path d="M466.932,206.54l-1.475,2.594a4.449,4.449,0,0,0-.307-.345c.429-.611,1.065-1.613,1.464-2.249A.454.454,0,0,0,466.932,206.54Z" transform="translate(-387.577 -169.1)" fill="#444053"/><path d="M472.119,208.484s-1.138,1.069-1.789-.172a4.734,4.734,0,0,0,1.163-1.4,4.029,4.029,0,0,0,.069-3c.977-.628,1.134.073,1.134.073C474.045,205.189,472.119,208.484,472.119,208.484Z" transform="translate(-391.673 -166.816)" fill="#25abf7"/><path d="M472.119,208.484s-1.138,1.069-1.789-.172a4.734,4.734,0,0,0,1.163-1.4,4.029,4.029,0,0,0,.069-3c.977-.628,1.134.073,1.134.073C474.045,205.189,472.119,208.484,472.119,208.484Z" transform="translate(-391.673 -166.816)" opacity="0.1"/><path d="M316.232,94.47s-3.305,3.378-1.638,6.332a3.751,3.751,0,0,1,1.1-1.274,2.387,2.387,0,0,0,.837-.745A6.266,6.266,0,0,1,316.232,94.47Z" transform="translate(-268.143 -80.473)" fill="#fff" opacity="0.1"/><path d="M616.512,161.009c-1.094,8.715-9.846,14.781-19.553,13.57-4.711-.59-9.9-1.686-13.863-3.659a12.932,12.932,0,0,1-5.326-4.38,7.5,7.5,0,0,1-1.134-3.048,8.486,8.486,0,0,1,0-2.209,15.071,15.071,0,0,1,2.74-6.485c4.659-6.734,14.191-12.7,21.546-11.769C610.623,144.247,617.608,152.3,616.512,161.009Z" transform="translate(-475.685 -118.799)" fill="#2170fc"/><path d="M561.827,243.585a8.262,8.262,0,0,0-1.075-.529c-.519-.209-1.09-.36-1.389-.161a.418.418,0,0,0-.18.266.907.907,0,0,0-.025.3c0,.121.015.234.015.333-.015,1.167-.695.9-.695.9-1.749.45-3.416-2.985-3.416-2.985s-.253-1.54,1.14-1.389a2.468,2.468,0,0,1,.366.069,3.631,3.631,0,0,0,1.28.1,3.753,3.753,0,0,0,.46-.065,5.939,5.939,0,0,0,1.31-.418,5.28,5.28,0,0,0,.6-.314Z" transform="translate(-458.666 -195.315)" fill="#25abf7"/><path d="M569.964,245.653a.418.418,0,0,0-.18.266l-1.335-2.673a3.747,3.747,0,0,0,.46-.065C569.178,243.881,569.657,244.966,569.964,245.653Z" transform="translate(-469.268 -198.075)" fill="#444053"/><path d="M559.173,246.131c-.015,1.167-.695.9-.695.9-1.749.45-3.416-2.985-3.416-2.985s-.253-1.54,1.14-1.389a4.662,4.662,0,0,0,.517,1.74A4.012,4.012,0,0,0,559.173,246.131Z" transform="translate(-458.667 -197.656)" fill="#25abf7"/><path d="M559.173,246.131c-.015,1.167-.695.9-.695.9-1.749.45-3.416-2.985-3.416-2.985s-.253-1.54,1.14-1.389a4.662,4.662,0,0,0,.517,1.74A4.012,4.012,0,0,0,559.173,246.131Z" transform="translate(-458.667 -197.656)" opacity="0.1"/><path d="M734.651,175.882s-.971-4.625-4.351-4.882a3.8,3.8,0,0,1,.443,1.627,2.387,2.387,0,0,0,.155,1.109A6.277,6.277,0,0,1,734.651,175.882Z" transform="translate(-597.262 -140.994)" fill="#fff" opacity="0.1"/><path d="M566.078,215.756a12.932,12.932,0,0,1-5.326-4.38c-.519-.209-1.09-.36-1.389-.161a.418.418,0,0,0-.18.266.907.907,0,0,0-.025.3c0,.121.015.234.015.333-.015,1.167-.695.9-.695.9-1.749.45-3.416-2.985-3.416-2.985s-.253-1.54,1.14-1.389a2.466,2.466,0,0,1,.366.069,3.631,3.631,0,0,0,1.28.1,3.747,3.747,0,0,0,.46-.065,5.938,5.938,0,0,0,1.31-.418,8.486,8.486,0,0,1,0-2.209,15.072,15.072,0,0,1,2.74-6.485C564.852,205,566.835,211.089,566.078,215.756Z" transform="translate(-458.666 -163.635)" opacity="0.1"/><path d="M460.938,184.66a11.4,11.4,0,0,1-1.36.529,12.91,12.91,0,0,1-1.289.337l-.289.059c-.377.069-.768.128-1.163.172-.3.038-.6.063-.91.082a30.049,30.049,0,0,1-18.178-5.487,19.306,19.306,0,0,1-3.778-3.533,13.208,13.208,0,0,1-1.485-2.3,19.36,19.36,0,0,1-2.037-7.531c-.015-.278-.025-.548-.025-.822-.082-6.066,2.841-11.714,8.1-14.474.987,3.8,1.222,7.432,0,10.227.113.548.308,1.1.64,1.255a.454.454,0,0,0,.312,0,.837.837,0,0,0,.266-.146c.1-.073.184-.142.268-.2.977-.628,1.134.073,1.134.073,1.349,1.207-.577,4.5-.577,4.5s-1.138,1.069-1.788-.172a2.474,2.474,0,0,1-.146-.347,3.779,3.779,0,0,0-.628-1.115,4.46,4.46,0,0,0-.308-.345,5.648,5.648,0,0,0-1.081-.862,8.282,8.282,0,0,1-1.832,1.232,11.614,11.614,0,0,1-2.96.987c.234.107.458.22.684.333a12.949,12.949,0,0,1,5.278,4.418c.513.209,1.084.37,1.387.176a.471.471,0,0,0,.182-.259.848.848,0,0,0,.023-.3v-.333c.029-1.163.7-.893.7-.893,1.755-.431,3.387,3.014,3.387,3.014s.238,1.544-1.153,1.379a1.907,1.907,0,0,1-.368-.073,3.7,3.7,0,0,0-1.274-.109,3.767,3.767,0,0,0-.464.061,5.726,5.726,0,0,0-1.32.4,8.413,8.413,0,0,1-.015,2.209c-.019.128-.04.255-.059.387a1.142,1.142,0,0,1,.117.019,52.412,52.412,0,0,1,8.332,1.941c.837.278,1.646.575,2.424.914.542.228,1.069.473,1.577.732a12.935,12.935,0,0,1,5.278,4.418c.515.209,1.086.37,1.389.176a.458.458,0,0,0,.18-.259.8.8,0,0,0,.025-.3c0-.121-.01-.23-.01-.333.029-1.163.7-.893.7-.893C459.588,183.4,460.341,183.969,460.938,184.66Z" transform="translate(-360.114 -125.723)" opacity="0.1"/><g transform="translate(73.829 22.828)" opacity="0.1"><path d="M449.667,181.509a2.4,2.4,0,0,1-.837.743,3.8,3.8,0,0,0-1.1,1.276c-1.673-2.952,1.642-6.328,1.642-6.328A6.267,6.267,0,0,0,449.667,181.509Z" transform="translate(-447.254 -168.726)"/><path d="M500.4,146.937c.308.615.615,1.255.914,1.883a14.224,14.224,0,0,1-6.667,4.96c-.345.439-.644.943-.542,1.284a.418.418,0,0,0,.209.245.78.78,0,0,0,.282.109,2.792,2.792,0,0,1,.318.082c1.115.343.669.92.669.92-.063,1.807-3.83,2.429-3.83,2.429s-1.55-.2-1.006-1.487a2.369,2.369,0,0,1,.169-.331,3.74,3.74,0,0,0,.46-1.2c.029-.153.054-.3.069-.454a6.135,6.135,0,0,0-.029-1.385,8.161,8.161,0,0,1-2.117-.628c-4.751-2.081-8.957-8.5-10.8-15.271C486.3,134.377,496.061,138.283,500.4,146.937Z" transform="translate(-471.964 -136.688)"/><path d="M592.831,278.812a7.515,7.515,0,0,1-1.906,2.64,5.1,5.1,0,0,0-.586-.324l2.337-3.5A8.7,8.7,0,0,0,592.831,278.812Z" transform="translate(-560.409 -248.147)"/><path d="M594.847,284.29s-1.138,1.069-1.789-.172a2.251,2.251,0,0,1-.146-.347,3.665,3.665,0,0,0-.628-1.113,3.563,3.563,0,0,0-.307-.347,5.713,5.713,0,0,0-1.081-.86,5.1,5.1,0,0,0-.586-.324l2.337-3.5a8.7,8.7,0,0,0,.155,1.182c.117.548.314,1.109.646,1.255a.431.431,0,0,0,.312,0,.8.8,0,0,0,.264-.146,3.119,3.119,0,0,1,.27-.195c.977-.64,1.134.073,1.134.073C596.782,281,594.847,284.29,594.847,284.29Z" transform="translate(-560.385 -248.147)"/><path d="M600.094,289.252l-1.479,2.592a4.393,4.393,0,0,0-.305-.343c.429-.615,1.067-1.615,1.464-2.251A.431.431,0,0,0,600.094,289.252Z" transform="translate(-566.711 -257.336)"/><path d="M605.239,291.227s-1.138,1.069-1.789-.172a4.669,4.669,0,0,0,1.161-1.391,4.029,4.029,0,0,0,.071-3c.977-.628,1.136.073,1.136.073C607.174,287.937,605.239,291.227,605.239,291.227Z" transform="translate(-570.776 -255.084)"/><path d="M605.239,291.227s-1.138,1.069-1.789-.172a4.669,4.669,0,0,0,1.161-1.391,4.029,4.029,0,0,0,.071-3c.977-.628,1.136.073,1.136.073C607.174,287.937,605.239,291.227,605.239,291.227Z" transform="translate(-570.776 -255.084)" opacity="0.1"/><path d="M449.667,181.509a2.4,2.4,0,0,1-.837.743,3.8,3.8,0,0,0-1.1,1.276c-1.673-2.952,1.642-6.328,1.642-6.328A6.267,6.267,0,0,0,449.667,181.509Z" transform="translate(-447.254 -168.726)" opacity="0.1"/></g><path d="M465.579,151.633c4.382,8.742,8.1,20.352.249,24.286s-24.293-1.293-28.675-10.041-1.571-19.019,6.276-22.954S461.2,142.891,465.579,151.633Z" transform="translate(-363.801 -117.579)" fill="#2170fc"/><path d="M592.521,288.97s-1.138,1.067-1.789-.174a2.916,2.916,0,0,1-.144-.345,3.693,3.693,0,0,0-.628-1.117,4.112,4.112,0,0,0-.307-.345,6,6,0,0,0-1.673-1.184l2.339-3.5s.107,2.14.8,2.429a.431.431,0,0,0,.316,0,.875.875,0,0,0,.264-.149c.1-.075.186-.14.268-.195.977-.638,1.136.071,1.136.071C594.452,285.678,592.521,288.97,592.521,288.97Z" transform="translate(-484.713 -229.02)" fill="#25abf7"/><path d="M597.754,293.924l-1.477,2.592a4.119,4.119,0,0,0-.308-.345c.418-.613,1.067-1.615,1.464-2.251A.431.431,0,0,0,597.754,293.924Z" transform="translate(-491.031 -238.201)" fill="#444053"/><path d="M602.929,295.864s-1.138,1.067-1.789-.174a4.7,4.7,0,0,0,1.165-1.4,4.024,4.024,0,0,0,.069-3c.977-.638,1.136.071,1.136.071C604.859,292.572,602.929,295.864,602.929,295.864Z" transform="translate(-495.12 -235.913)" fill="#25abf7"/><path d="M602.929,295.864s-1.138,1.067-1.789-.174a4.7,4.7,0,0,0,1.165-1.4,4.024,4.024,0,0,0,.069-3c.977-.638,1.136.071,1.136.071C604.859,292.572,602.929,295.864,602.929,295.864Z" transform="translate(-495.12 -235.913)" opacity="0.1"/><path d="M447.032,181.86s-3.305,3.378-1.638,6.332a3.8,3.8,0,0,1,1.1-1.274,2.387,2.387,0,0,0,.837-.745A6.281,6.281,0,0,1,447.032,181.86Z" transform="translate(-371.582 -149.582)" fill="#fff" opacity="0.1"/><path d="M596.135,301.85a2.82,2.82,0,0,0-.165,4.272c1.563,1.295,3.9.483,5.916.7a7.925,7.925,0,0,1,5.073,3.123,13.249,13.249,0,0,1,2.644,10.838c-.4,1.927-1.222,3.746-1.6,5.677a22.792,22.792,0,0,0,.054,7.043,13.711,13.711,0,0,0,1.32,5.071c1.353,2.441,3.991,3.88,6.621,4.811s5.412,1.506,7.861,2.843A14.12,14.12,0,0,1,630.676,355a1.406,1.406,0,0,1,.021.879.519.519,0,0,1-.724.285" transform="translate(-490.32 -244.472)" fill="none" stroke="#444053" stroke-miterlimit="10" stroke-width="1"/><path d="M566.456,321.42a1.325,1.325,0,0,0,.887,1.433,2.058,2.058,0,0,0,1.753-.272c.628-.4,1.19-1.071,1.939-1.046a1.9,1.9,0,0,1,1.341.837,7.334,7.334,0,0,0,1.033,1.255,3.138,3.138,0,0,0,1.238.565,3.536,3.536,0,0,0,1.625.077c1.155-.253,2-1.282,3.138-1.611,1.5-.433,3.054.454,4.257,1.452A10.219,10.219,0,0,1,587,328.539a18.473,18.473,0,0,1,.628,3.652,7.548,7.548,0,0,0,1.151,3.491,3.255,3.255,0,0,0,3.2,1.439" transform="translate(-467.673 -259.948)" fill="none" stroke="#444053" stroke-miterlimit="10" stroke-width="1"/><path d="M672.544,276.8s-6.621-3.723-7.175-4.1,0-.908,0-.908c-1.061-.682-3.261.72-3.261.72s.8.2,1.558.439c-2.749-.717-7.347-2.063-9.689-3.575a4.223,4.223,0,0,0-4.51-.251l-.025-.069c-.28-.872-.234-1.826-.573-2.68a3.44,3.44,0,0,0-2.537-2c-.628-.126-.738-.061-1.111-.538a2.225,2.225,0,0,0-1.531-.935,9.184,9.184,0,0,0-2.535-.3,3.056,3.056,0,0,0-2.232,1.046c-.284.374-.441.826-.72,1.2-1.339,1.814-4.531.989-6.236,2.487-1.046.925-1.215,2.439-1.45,3.8s-.786,2.893-2.125,3.347a8.209,8.209,0,0,1-2.008.182,2,2,0,0,0-1.713.87,1.549,1.549,0,0,0-.138.757.417.417,0,0,0,0,.05v.027a8.858,8.858,0,0,0,.161,1.155v-.044a1.4,1.4,0,0,1-.289,1.322c-.745.7-2.36.061-2.824.962a.807.807,0,0,0-.082.418,1.435,1.435,0,0,0,.462,1.029,10.048,10.048,0,0,1,1.1,1.027,1.672,1.672,0,0,1,.259.556.557.557,0,0,1,.013-.056,1.762,1.762,0,0,1-.038.954c-2.45-.1-6.066-.324-6.8-.816-1.13-.757-6.426-2.037-6.426-2.037L610,280.8h0l-.174-.1-.163-.09-.031-.017c-.063-.033-.13-.069-.209-.1h-.015l-.209-.1-.038-.017-.243-.107-.042-.019c-.077-.031-.157-.063-.238-.092l-.027-.01c-.086-.031-.174-.059-.259-.086l-.046-.013a2.735,2.735,0,0,0-.521-.1h-.264l-.065.01a.623.623,0,0,0-.067.013.78.78,0,0,0-.123.042.471.471,0,0,0-.192.228l-.377-.144-6.558-2.533a11.806,11.806,0,0,1-1.14-.682,13.64,13.64,0,0,0-3.577-1.335l-.046-.031v.021c-1.443-.259-2.669,0-2.238,1.818.908,3.832,5.9,3.378,5.9,3.378l7.077,3.016.464.2c-.042,2.117.167,4.349.7,4.644a2.615,2.615,0,0,0,.266.132l.056.027c.086.038.172.071.255.1h.019c.084.029.165.052.243.073h.036c.084.023.167.04.245.054h0a3.691,3.691,0,0,0,.8.063h.092l-.04-2.535a1.792,1.792,0,0,1,.236.109h0a5.3,5.3,0,0,1,.738.5c.628.492,4.79.983,4.79.983a36.386,36.386,0,0,1,4.207,1.78c.232.305,11.606.642,11.606.642s-1.556,3.481,2.765,6.964c0,0,.738,4.539.272,5.788a11.3,11.3,0,0,0-.364,3.188c-1.42.5-4.811,1.78-5.673,2.847-1.109,1.362-1.985,1.362-1.985,1.362s-1.111,2.092-2.454,2.611-5.667,2.839-6.077,3.462-4.031,2.719-4.031,2.719-3.74,2.952-4.441,4.029-5.608,3.123-5.608,3.123a5.578,5.578,0,0,0-.935,3.859c.408,1.977-3.309.908-.077,4.257a16.243,16.243,0,0,0,3.841,2.523c-.121.073-.243.138-.362.2a3.317,3.317,0,0,1-.6.232c-1.929.51-7.42,9.307-7.42,9.307s-3.362,4.221-5.962,5.759c-.088.052-.176.1-.261.146h0a3.811,3.811,0,0,0-1.835-1.358,9.725,9.725,0,0,0-2.929-.8,4.067,4.067,0,0,1-2.046-.722,5.328,5.328,0,0,0-1.636-.943c-.812-.255-1.481-.044-1.151,1.494a12.57,12.57,0,0,0,1.753,4.295s3.6,3.159,3.935,4.276,1.83,2.366,2.065,2.213c.075-.05.469-.289.964-.628,1.012-.672,2.456-1.728,2.539-2.332a4.152,4.152,0,0,0-.418.033c.033-.063.073-.136.121-.222.475-.837,1.657-2.734,3.048-3.387l5.552-5.322s5.9-3.065,6.9-5.334a13.618,13.618,0,0,1,3.464-3.619l.347-.282c4.7,2.318,9.675,5.02,11.9,8.215,3.207,4.6,10.445,6.3,13.838,6.853.021.264.038.517.048.753a13.16,13.16,0,0,1-.157,2.952c-.176,1.021-.13,8.968-.13,8.968s.364,4.085-.688,5.391a10.372,10.372,0,0,0-1.236,3.667c-.017.084-.031.167-.048.251a2.13,2.13,0,0,0-1.092,1.571s-.9.586-.68,2.912c.052.563.069,1.046.094,1.464.082,1.32.226,1.948,1.659,1.933,1.883-.019,5.822-1.948,5.822-1.948a6.178,6.178,0,0,0-.042-1.184,4.729,4.729,0,0,0-.755-2.125l.015-.04.044-.1c.038-.092.073-.195.107-.3l.013-.027h0a2.564,2.564,0,0,0,.134-.743v-2.659a20,20,0,0,1,1.046-5.9,55.987,55.987,0,0,0,2.9-13.241,8.39,8.39,0,0,0-.021-1.1.556.556,0,0,0,.4-.531c-.059-1.477-1.226-.795-.642-3.69s.994-6.47,2.044-8.173a29.317,29.317,0,0,0,1.929-3.916s2.219-7.493,3.154-9.309,4.5-13.622-1.167-19.128l-.31-1.2a.065.065,0,0,1,.019-.04h0c.033-.073.125-.278.245-.563h0c.1-.234.209-.525.335-.837h0c.067-.18.132-.368.2-.559h0c.094-.282.178-.571.243-.837h0l.031-.138a3.121,3.121,0,0,0,3.347-1.554c.245-.14.345-.274.222-.391-.7-.682-.075-2.157-.075-2.157l.036-6.432s.818-.153,1.015-2.422a5.876,5.876,0,0,1,1.625-3.6c1.753-1.927,6.619-4.018,6.619-4.018,3.5-1.146,8.727-6.158,8.727-6.158C675.7,277.842,672.544,276.8,672.544,276.8Zm-7.673,2.6a23.1,23.1,0,0,0-3.544,1.443s-1.477.372-2.805.872a4.7,4.7,0,0,1-3.037-.259c-.9-1.2-3.933.523-4.635.939a1.136,1.136,0,0,1-1.481-.232,4.936,4.936,0,0,1-.5-.525,1.983,1.983,0,0,0-.519-.431,4.613,4.613,0,0,1,.854-1.081c.738-.72,1.613-1.3,2.357-2.014A4.209,4.209,0,0,0,653,275.472v-.132a3.462,3.462,0,0,0-.454-1.814,14.912,14.912,0,0,0,1.866.282,16.409,16.409,0,0,1,5.284,1.619l.27.128-.144.05.052.067-.052.017.013.017h0l.1.136.015.017c.05.065.113.144.188.236l.023.027c.077.094.165.2.262.305l.025.029c.1.111.209.226.316.341l.029.029c.1.1.209.209.312.305h0a5.778,5.778,0,0,0,.452.379l.017.01a3.45,3.45,0,0,0,.381.247l.038.021a1.77,1.77,0,0,0,.182.084,1.284,1.284,0,0,0,1.6-.567,2.171,2.171,0,0,1,.433.172C665.277,278.012,665.837,279.2,664.871,279.392Z" transform="translate(-479.808 -213.421)" fill="url(#a)"/><path d="M900.1,296.962v1.165l-4.895,1.358s-.448-.253-1.144-.586a15.741,15.741,0,0,0-5.148-1.623c-2.676-.174-11.47-2.82-8.823-3.416s2.439,0,2.439,0,2.571-3.278,5.96-1.029c2.573,1.711,7.939,3.207,10.369,3.828C899.623,296.845,900.1,296.962,900.1,296.962Z" transform="translate(-715.326 -236.716)" fill="#efb7b9"/><path d="M785.125,263.587a8.752,8.752,0,0,0-2.469-.3,2.965,2.965,0,0,0-2.178,1.058c-.276.374-.429.837-.7,1.207-1.3,1.82-4.416.994-6.077,2.5-1.025.927-1.182,2.445-1.41,3.809s-.768,2.9-2.073,3.357a7.728,7.728,0,0,1-1.956.18,1.944,1.944,0,0,0-1.674.872c-.5,1.021.569,2.489-.247,3.28-.728.7-2.3.059-2.753.964a1.245,1.245,0,0,0,.37,1.343,10.152,10.152,0,0,1,1.069,1.029,1.759,1.759,0,0,1-1.383,2.768c-.575.019-1.226-.228-1.686.121a1.2,1.2,0,0,0-.381,1,2.468,2.468,0,0,0,2.527,2.3,5.546,5.546,0,0,0,2.606-1.255,3.5,3.5,0,0,1,2.719-.814,4.438,4.438,0,0,1,1.222.642,12.474,12.474,0,0,0,3.7,1.59,4.293,4.293,0,0,0,3.449-.295c1.111-.761,1.527-2.32,2.719-2.929,1.255-.638,2.742.036,4.035.6s2.985.939,3.958-.079c1.046-1.1.441-2.945.983-4.364a4.111,4.111,0,0,1,.979-1.406c.72-.724,1.571-1.305,2.3-2.021a4.215,4.215,0,0,0,1.408-2.64,4.947,4.947,0,0,0-1.429-3.3,9.551,9.551,0,0,1-2.04-3.037c-.272-.874-.228-1.83-.559-2.686a3.368,3.368,0,0,0-2.473-2.01c-.628-.125-.72-.061-1.083-.542A2.15,2.15,0,0,0,785.125,263.587Z" transform="translate(-621.993 -213.967)" fill="#925978"/><g transform="translate(139.596 61.578)" opacity="0.1"><path d="M784.971,327.2a4.561,4.561,0,0,0,.115,1.617A4.416,4.416,0,0,0,784.971,327.2Z" transform="translate(-780.058 -326.098)"/><path d="M772.351,348.34a1.673,1.673,0,0,1,.251.559,1.8,1.8,0,0,0-.251-1.464,9.577,9.577,0,0,0-1.069-1.029,1.78,1.78,0,0,1-.335-.485.484.484,0,0,0-.036.054,1.246,1.246,0,0,0,.37,1.343A9.708,9.708,0,0,1,772.351,348.34Z" transform="translate(-768.907 -340.902)"/><path d="M792.849,324.308c-.726.717-1.577,1.3-2.3,2.021a4.127,4.127,0,0,0-.979,1.408c-.542,1.418.065,3.263-.983,4.362-.973,1.019-2.665.64-3.958.079s-2.78-1.234-4.035-.6c-1.2.611-1.615,2.171-2.719,2.929a4.3,4.3,0,0,1-3.449.295,12.473,12.473,0,0,1-3.7-1.59,4.439,4.439,0,0,0-1.222-.642,3.466,3.466,0,0,0-2.719.816,5.442,5.442,0,0,1-2.606,1.255,2.491,2.491,0,0,1-2.471-1.883,1.643,1.643,0,0,0-.056.483,2.47,2.47,0,0,0,2.527,2.3,5.548,5.548,0,0,0,2.606-1.255,3.5,3.5,0,0,1,2.719-.814,4.432,4.432,0,0,1,1.222.64,12.425,12.425,0,0,0,3.7,1.592,4.31,4.31,0,0,0,3.449-.295c1.111-.761,1.527-2.32,2.719-2.929,1.255-.64,2.742.033,4.035.594s2.985.939,3.958-.079c1.046-1.1.441-2.943.983-4.361a4.146,4.146,0,0,1,.979-1.408c.72-.722,1.571-1.3,2.3-2.019a4.221,4.221,0,0,0,1.408-2.64,2.853,2.853,0,0,0-.031-.642A4.415,4.415,0,0,1,792.849,324.308Z" transform="translate(-761.646 -321.93)"/></g><path d="M904.746,465.6l1.86.151s-1.4,3.165-4.393,1.6S904.746,465.6,904.746,465.6Z" transform="translate(-732.51 -373.968)" fill="#dda8d4"/><path d="M644.11,607.55s-2.339,1.623-4.483,3.429a13.538,13.538,0,0,0-3.374,3.629c-.977,2.278-6.725,5.361-6.725,5.361l-5.41,5.353c-1.353.655-2.51,2.552-2.968,3.4-.14.257-.209.418-.209.418h-2.448l-1.479-1.481s-.8-3.585,1.707-3.87a3.532,3.532,0,0,0,1.364-.544c2.535-1.542,5.809-5.776,5.809-5.776s5.351-8.823,7.229-9.336a3.135,3.135,0,0,0,.582-.232,19.641,19.641,0,0,0,4.315-3.809Z" transform="translate(-507.578 -483.488)" fill="#efb7b9"/><path d="M844.458,683.091a57.832,57.832,0,0,1-2.82,13.279,20.43,20.43,0,0,0-1.025,5.922v2.675a3.1,3.1,0,0,1-.247,1.075,5.314,5.314,0,0,1-.266.575l-5.02-.854s.134-1.144.389-2.47a10.608,10.608,0,0,1,1.2-3.677c1.025-1.31.669-5.41.669-5.41s-.044-7.97.128-9a13.525,13.525,0,0,0,.153-2.96c-.023-.531-.071-1.136-.153-1.822a37.359,37.359,0,0,1,0-5.92l5.751.285.966,6.263A4.006,4.006,0,0,1,844.458,683.091Z" transform="translate(-680.123 -539.177)" fill="#efb7b9"/><path d="M621.15,701.076c-.14.257-.209.418-.209.418h-2.448l-1.479-1.481s-.8-3.585,1.707-3.87a3.533,3.533,0,0,0,1.364-.544c.345,1.046-.755,2.119-.755,2.119s-.456.435-.115,2.125A1.658,1.658,0,0,0,621.15,701.076Z" transform="translate(-507.578 -555.855)" opacity="0.1"/><path d="M596.86,686.993c-.082.607-1.489,1.673-2.475,2.339-.483.333-.866.571-.939.628-.228.153-1.69-1.1-2.012-2.219s-3.834-4.288-3.834-4.288a12.82,12.82,0,0,1-1.707-4.307c-.322-1.542.331-1.755,1.119-1.5a5.19,5.19,0,0,1,1.594.948,3.893,3.893,0,0,0,2,.724,9.3,9.3,0,0,1,2.849.8,3.681,3.681,0,0,1,1.786,1.362c.418,1.084-.728,2.2-.728,2.2s-.456.435-.115,2.125S596.868,686.937,596.86,686.993Z" transform="translate(-482.995 -541.584)" fill="#444053"/><path d="M594.385,689.332c-.483.333-.866.571-.939.628-.228.153-1.69-1.1-2.012-2.219s-3.834-4.288-3.834-4.288a12.82,12.82,0,0,1-1.707-4.307c-.322-1.542.331-1.755,1.119-1.5a17.065,17.065,0,0,0,1.709,4.744C589.668,683.772,593.379,688.148,594.385,689.332Z" transform="translate(-482.995 -541.584)" opacity="0.1"/><path d="M840.31,814.273l.056.086a5.274,5.274,0,0,1-.266.575l-5.02-.853s.134-1.144.389-2.471c1.839-.787,5,2.192,5,2.192Z" transform="translate(-680.123 -647.493)" opacity="0.1"/><path d="M835.768,818.651s-3.832,1.935-5.671,1.954c-1.4.015-1.538-.615-1.617-1.937-.023-.418-.042-.914-.092-1.479-.209-2.332.663-2.929.663-2.929,1.006-4.213,6.115.594,6.115.594l-.174.471a4.83,4.83,0,0,1,.736,2.132,6.291,6.291,0,0,1,.04,1.194Z" transform="translate(-674.805 -648.326)" fill="#444053"/><path d="M836.238,837.306s-3.832,1.935-5.671,1.954c-1.4.015-1.538-.615-1.617-1.937a4.284,4.284,0,0,0,3.4.515,13.051,13.051,0,0,0,3.849-1.717A6.3,6.3,0,0,1,836.238,837.306Z" transform="translate(-675.275 -666.981)" opacity="0.1"/><path d="M856.764,338.109l-.661,7.083-.136,1.464-2.86.747-2.947.772-3.416-.757a11.067,11.067,0,0,1-.866-5.407,3.464,3.464,0,0,1,1.255-2.186,3.1,3.1,0,0,0,.567-.569,2.708,2.708,0,0,0,.429-.82,3.172,3.172,0,0,0,.138-1.128,7.814,7.814,0,0,0-1.515-3.744s6.6-3.263,6.263-1.673c-.222,1.033.977,2.625,1.845,3.615.473.538.837.9.837.9Z" transform="translate(-688.589 -267.883)" fill="#efb7b9"/><circle cx="6.054" cy="6.054" r="6.054" transform="translate(154.758 56.344)" opacity="0.1"/><circle cx="6.054" cy="6.054" r="6.054" transform="translate(154.758 56.116)" fill="#efb7b9"/><path d="M840.374,387.351a14.771,14.771,0,0,1-1.142,3.613l-8.114,3.157-6.8-5.466v-.038c.109-.611,1.429-8.3-.462-9.907-1.975-1.673-2.015-7.1-2.015-7.1s2.544-3.841,3.046-4.751,4.309-2.073,4.309-2.073q-.245.43-.429.82a7.418,7.418,0,0,0-.69,2.155,3.062,3.062,0,0,0,.366,2.19,2.4,2.4,0,0,1,.278.533c1.027,2.782,3.96,1.989,5.112,1.55a4.576,4.576,0,0,0,.475-.209l2.87-.28,1.8-.174S840,385.6,840.342,386.706A1.7,1.7,0,0,1,840.374,387.351Z" transform="translate(-669.653 -294.246)" fill="#444053"/><path d="M841.856,368.74v.01a8.7,8.7,0,0,0-.351.837h-3.1a8.811,8.811,0,0,1,1.63-.837Z" transform="translate(-682.749 -297.37)" fill="#925978"/><path d="M837.485,375.46a5.68,5.68,0,0,0-.159.759.255.255,0,0,1-.01.088H833.55c.209-.341.4-.638.515-.847Z" transform="translate(-678.913 -302.684)" fill="#fff"/><path d="M833.984,383.067H829.25c.184-.284.37-.573.544-.837h4.083A3.317,3.317,0,0,0,833.984,383.067Z" transform="translate(-675.513 -308.038)" fill="#fff"/><path d="M831.157,389.837H824.85c.167-.251.356-.542.556-.837h5.332c.027.048.054.094.082.134a2.342,2.342,0,0,1,.278.531C831.113,389.711,831.136,389.77,831.157,389.837Z" transform="translate(-672.033 -313.392)" fill="#fff"/><path d="M821.88,396.013v.464h8.1a2.649,2.649,0,0,1-.868-.847h-6.974Z" transform="translate(-669.684 -318.635)" fill="#fff"/><path d="M883.977,397.039h-5.3l.092-.033c.295-.115.475-.209.475-.209l2.87-.28,1.8-.176S883.935,396.6,883.977,397.039Z" transform="translate(-714.603 -319.196)" fill="#925978"/><path d="M839.311,403.237H822.157c-.033-.31-.058-.594-.077-.837h17.153C839.267,402.643,839.288,402.927,839.311,403.237Z" transform="translate(-669.842 -323.989)" fill="#fff"/><path d="M840,409.967H822.944c-.052-.291-.1-.573-.134-.837h17.122C839.953,409.389,839.972,409.672,840,409.967Z" transform="translate(-670.42 -329.311)" fill="#fff"/><path d="M841.084,416.647H824.259c-.082-.278-.155-.563-.209-.847h16.977C841.04,416.076,841.063,416.359,841.084,416.647Z" transform="translate(-671.4 -334.586)" fill="#fff"/><path d="M842.7,423.407H826.331a6.783,6.783,0,0,1-.381-.837h16.68C842.651,422.84,842.674,423.122,842.7,423.407Z" transform="translate(-672.903 -339.939)" fill="#fff"/><path d="M845.626,430.105H830.267a1.658,1.658,0,0,0-.339-.4,2.93,2.93,0,0,1-.418-.443h16.049C845.578,429.542,845.6,429.833,845.626,430.105Z" transform="translate(-675.718 -345.23)" fill="#fff"/><path d="M849.61,436.837H834.624A5.346,5.346,0,0,0,834.4,436h15.139C849.562,436.276,849.587,436.561,849.61,436.837Z" transform="translate(-679.585 -350.56)" fill="#fff"/><path d="M850.9,443.577H835.953c-.017-.291-.038-.573-.073-.837h14.948C850.851,443.018,850.874,443.3,850.9,443.577Z" transform="translate(-680.756 -355.89)" fill="#925978"/><path d="M851.351,450.307H836.29v-.837h14.976C851.291,449.752,851.326,450.035,851.351,450.307Z" transform="translate(-681.08 -361.212)" fill="#925978"/><path d="M851.271,457.027H836c.021-.276.036-.561.05-.837h15.126C851.206,456.481,851.235,456.763,851.271,457.027Z" transform="translate(-680.851 -366.527)" fill="#925978"/><path d="M850.935,463.747H835.38c.029-.27.056-.552.084-.837H850.83C850.87,463.232,850.9,463.517,850.935,463.747Z" transform="translate(-680.36 -371.841)" fill="#925978"/><path d="M850.4,470.282a1.258,1.258,0,0,1-.023.195H834.52c.038-.249.075-.536.111-.837h15.724a.1.1,0,0,1,0,.015A1.689,1.689,0,0,1,850.4,470.282Z" transform="translate(-679.68 -377.163)" fill="#fff"/><path d="M849.609,476.32c-.065.274-.146.565-.236.847H834.057l-.377-.3v-.04c.013-.073.042-.247.084-.5Z" transform="translate(-679.016 -382.446)" fill="#fff"/><path d="M853.261,483c-.113.318-.228.609-.326.837H839.886L838.84,483Z" transform="translate(-683.097 -387.728)" fill="#fff"/><path d="M859.316,489.77l-.021.046-2.06.8h-8.978l-1.046-.837Z" transform="translate(-689.716 -393.082)" fill="#fff"/><path d="M767.95,468.95l-2.18.845h-3.608l-1.052-.845Z" transform="translate(-601.873 -370.856)" fill="#925978"/><path d="M770.942,475.68l-.987.383-.475-.383Z" transform="translate(-608.492 -376.179)" fill="#925978"/><path d="M870.97,376.266c-1.32.312-2.546.54-2.546.54l-6.939.644-.956-7.213a10.283,10.283,0,0,1,2.544-2.2c1.146-.575,2.4-2.031,1.694-5.366-.04-.19-.086-.389-.14-.594a7.632,7.632,0,0,1-.209-1.125,6.123,6.123,0,0,1,1.333-4.692c.059-.069.092-.1.092-.1l.439-5.382a1.955,1.955,0,0,1,.23,0c.473.538.837.9.837.9l1.065,1.709-.661,7.083,1.8-.174s1.025,14.225,1.366,15.331A1.7,1.7,0,0,1,870.97,376.266Z" transform="translate(-700.249 -283.162)" opacity="0.1"/><path d="M877.75,360.318a5.937,5.937,0,0,0-1.594,3.6c-.19,2.276-.987,2.429-.987,2.429l-.038,6.455s-.609,1.481.075,2.163-5.692,1.862-5.692,1.862l-6.939.644-.956-7.213a10.3,10.3,0,0,1,2.542-2.2c1.213-.6,2.544-2.2,1.556-5.96a6.294,6.294,0,0,1,1.123-5.817c.059-.069.092-.1.092-.1l.439-5.382a2.463,2.463,0,0,1,1.914.789,4.982,4.982,0,0,0,.492.529,1.078,1.078,0,0,0,1.443.232c.684-.418,3.644-2.15,4.516-.943S877.75,360.318,877.75,360.318Z" transform="translate(-701.111 -283.182)" fill="#2f2e41"/><path d="M889.517,352.092l-.715,3.675-2.221.49c.058-.069.092-.1.092-.1l.439-5.382a2.463,2.463,0,0,1,1.914.789A4.981,4.981,0,0,0,889.517,352.092Z" transform="translate(-720.85 -283.159)" fill="#2170fc"/><path d="M954.769,314.413v1.165l-4.895,1.358s-.448-.253-1.144-.586c.529-.188,2.929-1.046,4.167-1.625.458-.209.761-.381.761-.464,0-.046-.048-.1-.132-.151C954.3,314.3,954.769,314.413,954.769,314.413Z" transform="translate(-769.999 -254.168)" opacity="0.1"/><path d="M941.628,315.086s-5.092,5.02-8.5,6.177c0,0-4.742,2.092-6.449,4.035l-3.188-7.857,1.176-1.056a4.547,4.547,0,0,0,2.96.259c1.286-.492,2.732-.868,2.732-.868a22.288,22.288,0,0,1,3.454-1.448c.941-.209.4-1.385-.638-1.916a2.283,2.283,0,0,0-.418-.172,1.237,1.237,0,0,1-1.554.569,3.667,3.667,0,0,1-1.046-.743h0a11.762,11.762,0,0,1-1.255-1.454s2.866-1.015,4.272-1.661c.458-.209.761-.381.761-.464,0-.343-2.807-1.063-2.807-1.063s2.144-1.4,3.178-.722c0,0-.54.531,0,.912s6.991,4.115,6.991,4.115S944.363,312.772,941.628,315.086Z" transform="translate(-750.039 -248.163)" fill="#2f2e41"/><path d="M957.547,321.626l-3.069.856a2.281,2.281,0,0,0-.418-.172,1.237,1.237,0,0,1-1.554.569,3.667,3.667,0,0,1-1.046-.743,11.706,11.706,0,0,1-1.029-1.226s2.864-1.015,4.272-1.661Z" transform="translate(-771.344 -258.232)" opacity="0.1"/><path d="M956.441,320.521l-3.265.912a1.237,1.237,0,0,1-1.554.569,7.946,7.946,0,0,1-2.3-2.2s2.866-1.015,4.272-1.661Z" transform="translate(-770.466 -257.355)" fill="#2170fc"/><path d="M701.557,604l6.1,3.479s-2.339,1.623-4.483,3.429c-2.221-1.113-4.313-2.138-5.924-3.092A19.71,19.71,0,0,0,701.557,604Z" transform="translate(-571.125 -483.417)" opacity="0.1"/><path d="M853.066,683.091a18.96,18.96,0,0,1-4.184-.439s-1.046-.092-2.638-.4c-.023-.531-.071-1.136-.153-1.822a37.359,37.359,0,0,1,0-5.92l5.75.285.966,6.263A4.184,4.184,0,0,1,853.066,683.091Z" transform="translate(-688.732 -539.177)" opacity="0.1"/><path d="M724.383,496.6c-.91,1.822-3.073,9.336-3.073,9.336a29.828,29.828,0,0,1-1.883,3.928c-1.025,1.707-1.424,5.292-1.993,8.2s.569,2.222.628,3.7-5.466.284-5.466.284-11.1-.966-15.256-7.112-18.1-10.422-21.251-13.779.475-2.278.075-4.27a5.687,5.687,0,0,1,.91-3.872s4.782-2.05,5.466-3.138,4.328-4.033,4.328-4.033,3.531-2.107,3.928-2.732,4.6-2.96,5.92-3.472,2.383-2.621,2.383-2.621.856,0,1.937-1.366,6.148-3.075,6.148-3.075c9.742,5.351,15.762,3.625,15.762,3.625l.3,1.213C728.768,482.941,725.3,494.783,724.383,496.6Z" transform="translate(-553.363 -379.488)" fill="#2170fc"/><path d="M845.743,477.418s-7.342,3.531-16.053-4.838c9.733,5.351,15.754,3.625,15.754,3.625Z" transform="translate(-675.861 -379.488)" opacity="0.1"/><path d="M812.109,524.828s-8.367,16.224-8.938,16.852S811.543,524.715,812.109,524.828Z" transform="translate(-654.868 -420.806)" opacity="0.1"/><path d="M847.775,516.4s-5.692,12.011-5.351,13.492C842.424,529.893,847.947,518.335,847.775,516.4Z" transform="translate(-685.919 -414.142)" opacity="0.1"/><path d="M889.664,528.37s-.508,6.37,1.935,9.622Z" transform="translate(-723.254 -423.608)" opacity="0.1"/><path d="M903.17,528.37s.786,5.351,1.531,6.376Z" transform="translate(-733.97 -423.608)" opacity="0.1"/><path d="M688.185,488.86l-9,4.953h3.529Z" transform="translate(-537.09 -386.601)" opacity="0.1"/><path d="M833.35,293.133c-.435.377-.761.933-1.318,1.082a2.3,2.3,0,0,1-1.2-.138,4.327,4.327,0,0,0-3.042-.015c-1.333.642-1.883,2.347-3.215,3a2.481,2.481,0,0,1-2.109.042,2.456,2.456,0,0,1-1.28-1.358,3.138,3.138,0,0,1,.7-3.065,6.529,6.529,0,0,1,2.774-1.722,29.481,29.481,0,0,1,8.5-1.312,1.256,1.256,0,0,1,.686.09,3.974,3.974,0,0,1,1.343,2.36C835.074,292.848,833.35,292.513,833.35,293.133Z" transform="translate(-669.009 -234.811)" opacity="0.1"/><path d="M833.35,292.029c-.435.379-.761.933-1.318,1.081a2.256,2.256,0,0,1-1.2-.138,4.327,4.327,0,0,0-3.042-.015c-1.333.642-1.883,2.349-3.215,3a2.5,2.5,0,0,1-1.318.247,2.426,2.426,0,0,1-.791-.209,2.455,2.455,0,0,1-1.28-1.358,3.134,3.134,0,0,1,.7-3.062,6.554,6.554,0,0,1,2.774-1.724,29.479,29.479,0,0,1,8.5-1.312,1.255,1.255,0,0,1,.686.092,3.968,3.968,0,0,1,1.343,2.358C835.074,291.763,833.35,291.409,833.35,292.029Z" transform="translate(-669.009 -233.936)" fill="#925978"/><path d="M652.663,330.026l-.418,3.784-1.274-.556-6.9-3.027s-4.866.456-5.75-3.389,5.38-.741,5.721-.483a12.836,12.836,0,0,0,1.111.68l6.391,2.542Z" transform="translate(-524.452 -262.722)" fill="#efb7b9"/><path d="M700.822,347.616,700.4,351.4l-1.274-.556a9.144,9.144,0,0,1,.577-3.673Z" transform="translate(-572.612 -280.312)" opacity="0.1"/><path d="M832.584,377.137l-.3,7.817-7.924-.607c.109-.611,1.429-8.3-.462-9.907-1.975-1.673-2.014-7.1-2.014-7.1s2.535-3.834,3.037-4.744,4.309-2.073,4.309-2.073a3.172,3.172,0,0,0,.138-1.128,4.352,4.352,0,0,1,.4.776,3.126,3.126,0,0,1-1.661,3.326c-.124.079-.253.157-.391.234-.224.123-.466.247-.732.366l-.119.054c-2.391,1.063-2.734,2.619-2.734,2.619a5.734,5.734,0,0,0-.607,4.159C824.083,373.271,832.584,377.137,832.584,377.137Z" transform="translate(-669.684 -289.984)" opacity="0.1"/><path d="M736.715,366.9l-.3,7.817-8.92-.682a15.941,15.941,0,0,1,.341-4.184c.454-1.255-.264-5.8-.264-5.8-4.213-3.493-2.7-6.985-2.7-6.985s-11.087-.341-11.309-.644a35.093,35.093,0,0,0-4.1-1.786s-4.062-.492-4.669-.985a4.75,4.75,0,0,0-.72-.5,1.9,1.9,0,0,0-.228-.111l.038,2.544a.612.612,0,0,1-.088,0h-.048a3.587,3.587,0,0,1-1.839-.435c-.985-.569-.837-8.238,0-8.614a1.017,1.017,0,0,1,.5-.069,5.626,5.626,0,0,1,2,.77l.167.1.061.038s5.161,1.284,6.261,2.044,8.89.877,8.89.877,3.529.364,3.91-.186,5.5-2.029,6.033-1.345,1.736.418,1.736.418c.73-1.1,1.376-.8,1.816-.278a4.013,4.013,0,0,1,.6,1.046c.188,1.521-.339,2.6-2.052,3.556-.257.142-.54.282-.851.418-2.391,1.063-2.732,2.619-2.732,2.619a5.73,5.73,0,0,0-.609,4.159C728.214,363.036,736.715,366.9,736.715,366.9Z" transform="translate(-574.271 -279.749)" fill="#2f2e41"/><path d="M703.277,346.44a.766.766,0,0,0-.274.069c-.837.377-.985,8.045,0,8.614a3.578,3.578,0,0,0,1.611.462h.048a.62.62,0,0,0,.088,0l-.038-2.544a1.889,1.889,0,0,1,.228.111v-.111a6.569,6.569,0,0,1,.51-5.723Z" transform="translate(-575.133 -279.735)" opacity="0.1"/><path d="M703.85,353.063l.038,2.544a3.525,3.525,0,0,1-1.975-.452c-.985-.569-.837-8.238,0-8.614.659-.3,1.977.4,2.51.7A6.566,6.566,0,0,0,703.85,353.063Z" transform="translate(-574.271 -279.756)" fill="#2170fc"/><path d="M842.251,362.732l-1.4-1.01,2.849-3.592a4.016,4.016,0,0,1,.6,1.046C844.492,360.693,843.965,361.776,842.251,362.732Z" transform="translate(-684.686 -288.979)" fill="#2170fc"/><path d="M833.351,299.636c-.435.377-.764.931-1.318,1.079a2.275,2.275,0,0,1-1.2-.136,4.31,4.31,0,0,0-3.044-.015c-1.33.642-1.883,2.347-3.215,3a2.51,2.51,0,0,1-1.316.245,2.416,2.416,0,0,1-2.218-2.222,2.532,2.532,0,0,0,.146,1.115,2.448,2.448,0,0,0,1.28,1.358,2.413,2.413,0,0,0,.791.209,2.489,2.489,0,0,0,1.316-.247c1.328-.651,1.883-2.358,3.215-3a4.332,4.332,0,0,1,3.044.015,2.256,2.256,0,0,0,1.2.138c.554-.148.883-.7,1.318-1.081,0-.628,1.724-.276,1.835-1.035a.927.927,0,0,0-.036-.339C834.884,299.322,833.351,299.053,833.351,299.636Z" transform="translate(-669.01 -241.997)" opacity="0.1"/><path d="M866.19,388.473s.946,1.849.151,2.617c0,0,.627-2.694,1.2-2.719" transform="translate(-704.725 -312.893)" opacity="0.1"/><path d="M648.046,325.25s4.962,3.278,1.82,4.318S648.046,325.25,648.046,325.25Z" transform="translate(-531.996 -262.977)" fill="#efb7b9"/></g></svg>