<svg xmlns="http://www.w3.org/2000/svg" xmlns:xlink="http://www.w3.org/1999/xlink" width="238.487" height="182.337" viewBox="0 0 238.487 182.337"><defs><linearGradient id="a" x1="-0.045" y1="-0.254" x2="0.967" y2="-0.254" gradientUnits="objectBoundingBox"><stop offset="0" stop-color="gray" stop-opacity="0.251"/><stop offset="0.54" stop-color="gray" stop-opacity="0.122"/><stop offset="1" stop-color="gray" stop-opacity="0.102"/></linearGradient></defs><g transform="translate(-0.009 -0.017)"><path d="M434.284,455.816a12.929,12.929,0,0,0-4.311.689,15.87,15.87,0,0,0-2.419.988c-3.692,1.859-.626-8.172-.626-8.172s1.028,0,2.263-.1c1.476-.118,3.246-.363,3.9-.876C434.3,447.387,434.284,455.816,434.284,455.816Z" transform="translate(-345.331 -355.288)" fill="#efb7b9"/><path d="M628.171,390.289c.045,2.8-4.931,5.272-7.294,6.286-.736.314-1.222.488-1.222.488l-.515-3.228s.323-.261.845-.655C622.23,391.488,628.122,387.306,628.171,390.289Z" transform="translate(-495.622 -309.426)" fill="#efb7b9"/><path d="M620.877,410.3c-.736.314-1.222.488-1.222.488l-.515-3.228s.323-.261.845-.655Z" transform="translate(-495.622 -323.146)" opacity="0.1"/><path d="M513.31,411.166s9.755-.876,10.012-.918,3.435-1.115,3.747-1.273a7.674,7.674,0,0,1,5.332-1.714,14.5,14.5,0,0,0,5.1-.551l1.148,4.369-23.171,2.628Z" transform="translate(-412.384 -322.998)" fill="#bdcde5"/><path d="M819.05,365.081s.357-4.376,2.207-3.618,5.047,3.344,5.963,3.415,6.465,3.23,6.333,6.688-5.35-.56-5.35-.56-4.855-1.193-6.425-.655S819.05,365.081,819.05,365.081Z" transform="translate(-650.968 -287.769)" fill="#b07473"/><path d="M833.585,371.6c-.127,3.458-5.35-.56-5.35-.56s-4.853-1.193-6.425-.655c-.446.156-.892-.223-1.248-.849a16.507,16.507,0,0,1-1.4-4.066c-.051-.223-.076-.354-.076-.354s.357-4.376,2.207-3.616,5.045,3.333,5.961,3.413S833.709,368.144,833.585,371.6Z" transform="translate(-650.998 -287.798)" opacity="0.1"/><path d="M823.806,379.542c-.158.406-1.28,1.05-3.021,1.837a16.507,16.507,0,0,1-1.4-4.066c.328-.14.56-.3.6-.486C820.117,376.216,824.714,377.215,823.806,379.542Z" transform="translate(-651.232 -299.64)" opacity="0.1"/><path d="M665.15,388.349l10.667-2.417s7.223-4.251,10.032-5.1,7.653-2.022,8.072-2.229a9.361,9.361,0,0,1,2.495-.4c.894-.056,3.166-.446,3.295-1.054s4.726.386,3.819,2.713S670.2,392.317,670.2,392.317Z" transform="translate(-531.375 -299.891)" fill="#444053"/><path d="M665.15,388.349l10.667-2.417s7.223-4.251,10.032-5.1,7.653-2.022,8.072-2.229a9.361,9.361,0,0,1,2.495-.4c.894-.056,3.166-.446,3.295-1.054s4.726.386,3.819,2.713S670.2,392.317,670.2,392.317Z" transform="translate(-531.375 -299.891)" opacity="0.1"/><path d="M856.057,374.475c-.127,3.46-5.35-.56-5.35-.56a27.863,27.863,0,0,0-5.424-.794,3.345,3.345,0,0,0-1,.138c-1.56.537-2.722-5.27-2.722-5.27s.022-.281.087-.687c.19-1.2.738-3.5,2.122-2.931,1.85.76,5.045,3.344,5.961,3.413S856.182,371.024,856.057,374.475Z" transform="translate(-668.459 -290.03)" fill="#b07473"/><path d="M845.253,381.877a3.344,3.344,0,0,0-1,.138c-1.561.537-2.722-5.27-2.722-5.27s.022-.281.087-.687c1.3-.279,2.392-.528,2.392-.528C846.4,375.635,845.614,380.216,845.253,381.877Z" transform="translate(-668.436 -298.769)" opacity="0.1"/><path d="M646.534,382.751c-1.737,1.857-7.47,2.7-8.344,2.423a5.1,5.1,0,0,0-1.973-.1l-9.84,4.581a6.284,6.284,0,0,1-2.952,1.56c-1.547.21-5.219,2.185-5.219,2.185l-3.473,1.338a12.932,12.932,0,0,1-2.339,1.857c-.642.223-4.269,1.318-4.269,1.318s-5.825,3.344-7.7,4.126a12.335,12.335,0,0,1-6.13.486,29.446,29.446,0,0,0-4.639-.466c-.745-.038-1.275-.058-1.275-.058l-1.837-13.89s1.518-.337,3.435-.789a65.144,65.144,0,0,0,7.417-2.033c1.7-.8,10.767,1.56,12.43,1.594s10.145-2.675,10.145-2.675,10.6-5.979,12.742-5.981,4.929-.936,6.659-1.175,6.05-1.228,6.05-1.228C648.347,375.954,646.534,382.751,646.534,382.751Z" transform="translate(-470.297 -298.994)" fill="#444053"/><path d="M430.655,455.72a6.518,6.518,0,0,1-.682,4.1,15.87,15.87,0,0,0-2.419.988c-3.692,1.859-.626-8.172-.626-8.172s1.028,0,2.263-.1A6.5,6.5,0,0,1,430.655,455.72Z" transform="translate(-345.331 -358.604)" opacity="0.1"/><path d="M401.514,447.828A6.538,6.538,0,0,1,388.9,451.06h0c-.04-.111-.076-.223-.111-.337a6.381,6.381,0,0,1-.192-.834,6.541,6.541,0,0,1,12.783-2.7A5.893,5.893,0,0,1,401.514,447.828Z" transform="translate(-316.411 -350.676)" fill="#efb7b9"/><path d="M589.486,436.129a6.356,6.356,0,0,1,.176,5.914c-.745-.038-1.275-.058-1.275-.058l-1.837-13.89s1.518-.337,3.435-.789l.2-.016S587.522,432.3,589.486,436.129Z" transform="translate(-470.297 -338.99)" opacity="0.1"/><path d="M479.494,434.881a6.2,6.2,0,0,1-.223,6.583s-1.023-.288-1.913,1.208-3.638,1.257-4.256.669a5.572,5.572,0,0,0-3.5-.72c-.722.192-10.069.551-10.069.551s-8.458-.143-11.166-4.363a5.179,5.179,0,0,1-.3-.531s-2.138-4-2.2-4.891a5.314,5.314,0,0,1,.29-1.56c.283-.947.669-1.908.669-1.908l1.442-.379s4.209-2.4,4.554-3.059,7.535-1.351,11.189-.617a68.1,68.1,0,0,0,10.56.64l5.644-.475S477.541,431.056,479.494,434.881Z" transform="translate(-360.965 -337.638)" fill="#cfdff7"/><path d="M559.61,492.238a16.94,16.94,0,0,0,2.452-1.184C563.362,490.276,559.61,492.238,559.61,492.238Z" transform="translate(-449.363 -388.398)" opacity="0.1"/><path d="M467,436.6a7.52,7.52,0,0,0,8.716,3.464,20.678,20.678,0,0,1,10.386-.446s5.555-.319,6.578-.745a41.553,41.553,0,0,1,4.695-1.462c.876-.178,2.1-.531,3.065-.832s6.137-1.389,6.137-1.389-1.634-3.652-.843-4.117c0,0-5.1,1.039-5.161.669s-5.776-.6-6.242-.223-5.573.74-6.019.907-8.337.861-8.337.861S468.137,428.471,467,436.6Z" transform="translate(-377.398 -341.928)" opacity="0.1"/><path d="M635,422.155s9.3-5.388,9.639-1.83-8.748,4.855-8.748,4.855Z" transform="translate(-507.947 -332.633)" fill="#efb7b9"/><path d="M467.5,433.476a7.528,7.528,0,0,0,8.716,3.464,20.7,20.7,0,0,1,10.388-.446s5.555-.319,6.576-.745a41.432,41.432,0,0,1,4.7-1.462c.874-.178,2.1-.531,3.065-.831s6.137-1.389,6.137-1.389-1.636-3.651-.845-4.117c0,0-5.1,1.039-5.161.669s-5.776-.6-6.242-.223-5.573.74-6.019.907-8.331.858-8.331.858S468.639,425.351,467.5,433.476Z" transform="translate(-377.786 -339.503)" opacity="0.1"/><path d="M466.67,434.616a7.522,7.522,0,0,0,8.716,3.464,20.69,20.69,0,0,1,10.388-.446s5.555-.319,6.576-.745a41.467,41.467,0,0,1,4.7-1.465c.874-.176,2.1-.531,3.065-.832s6.137-1.387,6.137-1.387-1.636-3.654-.845-4.117c0,0-5.1,1.039-5.161.669s-5.776-.6-6.242-.223-5.562.74-6.019.91-8.335.854-8.335.854S467.809,426.491,466.67,434.616Z" transform="translate(-377.141 -340.389)" fill="#cfdff7"/><path d="M553.6,439.571c-.087-.239,1.411-.125,4.367-.7s7.932-1.935,7.932-1.935S554.262,441.372,553.6,439.571Z" transform="translate(-444.688 -346.489)" opacity="0.1"/><path d="M497.942,441.38s.141.4-1.3,1.271" transform="translate(-400.43 -349.939)" opacity="0.1"/><path d="M512.392,444a1.6,1.6,0,0,1-1.052,1.89" transform="translate(-411.853 -351.975)" opacity="0.1"/><path d="M457.87,452.528l1.15,1.068s1.235.669,1.367,1.026,2.639.292,2.639.292l2.9,1.828-1.231-1.716a3.362,3.362,0,0,0,2.84-.6c1.411-1.052,4.211-3.79,4.211-3.79L476.8,446.7l.085-2.535-3.977-.644L463.65,452.9l-2.1.3-2.229-.247Z" transform="translate(-370.303 -351.602)" opacity="0.1"/><path d="M456.73,451.737l1.15,1.068s1.233.669,1.367,1.025,2.642.292,2.642.292l2.9,1.828-1.231-1.717a3.355,3.355,0,0,0,2.838-.6c1.413-1.052,4.213-3.79,4.213-3.79l5.06-3.921.085-2.535-3.977-.644-9.267,9.376-2.1.3-2.229-.247Z" transform="translate(-369.417 -350.996)" fill="#2170fc"/><path d="M452.992,460.256l-2.537,1.148a4.8,4.8,0,0,1-.3-.533s-2.14-4-2.207-4.891a5.257,5.257,0,0,1,.292-1.56Z" transform="translate(-362.589 -360.072)" opacity="0.1"/><path d="M450.862,459.586l-2.537,1.146a5.176,5.176,0,0,1-.3-.531s-2.138-4-2.2-4.891a5.313,5.313,0,0,1,.29-1.56Z" transform="translate(-360.934 -359.552)" fill="#e1e7ef"/><path d="M401.318,447.182a1.182,1.182,0,0,1-.392.33c-.395.181-.854,0-1.286.02s-.869.256-1.317.292a3.433,3.433,0,0,1-.936-.116,2.787,2.787,0,0,0-1.783.076,1.121,1.121,0,0,0-.571,1.5,1.7,1.7,0,0,1-1.63.568c-1.4-.2-2.581-1.407-4.013-.47-.622.412-.582,1.05-.568,1.667-.04-.111-.076-.223-.111-.337a6.382,6.382,0,0,1-.192-.834,6.541,6.541,0,0,1,12.782-2.7Z" transform="translate(-316.348 -350.668)" fill="url(#a)"/><path d="M375.069,436.777a2.723,2.723,0,0,1-.976.33,1.837,1.837,0,0,1-1.159-.051,1.532,1.532,0,0,1-.644-.718c-.825-1.636-.187-3.625-.537-5.424a4.749,4.749,0,0,1-.241-2.274c.23-.736,1-1.228,1.647-1.705a9.772,9.772,0,0,0,2.452-2.626,4.633,4.633,0,0,1,1.19-1.5,3.1,3.1,0,0,1,2.191-.305,10.8,10.8,0,0,0,2.243.281c.468-.027.927-.154,1.4-.2a7.879,7.879,0,0,1,1.634.071,4.5,4.5,0,0,1,1.859.486,4.3,4.3,0,0,1,1.607,2.9A5.431,5.431,0,0,0,389.1,429.1a.776.776,0,0,1,.308.383.669.669,0,0,1-.194.5l-1.017,1.351a1.5,1.5,0,0,1-.528.5c-.392.183-.854,0-1.286.018s-.867.261-1.318.294a3.341,3.341,0,0,1-.936-.116,2.749,2.749,0,0,0-1.772.076,1.13,1.13,0,0,0-.571,1.5,1.7,1.7,0,0,1-1.63.568c-1.407-.2-2.584-1.407-4.013-.47C374.987,434.487,376.171,436.079,375.069,436.777Z" transform="translate(-303.134 -335.222)" fill="#585268"/><g transform="translate(68.986 88.759)" opacity="0.1"><path d="M441.523,430.741a7.587,7.587,0,0,0,.861,2.468,11.57,11.57,0,0,1-.508-1.783,6.486,6.486,0,0,0-.776-2.075A8.783,8.783,0,0,1,441.523,430.741Z" transform="translate(-426.258 -429.35)"/><path d="M391.507,452.1l-.069-.065a1.186,1.186,0,0,1-.167.279l-1.017,1.351a1.52,1.52,0,0,1-.528.5c-.392.183-.854,0-1.286.018s-.867.261-1.317.294a3.344,3.344,0,0,1-.936-.116,2.786,2.786,0,0,0-1.783.076,1.121,1.121,0,0,0-.571,1.5,1.7,1.7,0,0,1-1.63.568c-1.4-.2-2.581-1.407-4.013-.47-1.17.771.013,2.363-1.09,3.061a2.7,2.7,0,0,1-.974.33,1.835,1.835,0,0,1-1.159-.051,1.242,1.242,0,0,1-.446-.4,3.292,3.292,0,0,0,.154.354,1.531,1.531,0,0,0,.644.718,1.837,1.837,0,0,0,1.159.051,2.724,2.724,0,0,0,.976-.33c1.1-.7-.082-2.289,1.09-3.061,1.42-.936,2.6.274,4.013.47a1.7,1.7,0,0,0,1.63-.568,1.129,1.129,0,0,1,.571-1.5,2.75,2.75,0,0,1,1.772-.076,3.344,3.344,0,0,0,.936.116c.446-.033.867-.274,1.317-.294s.892.165,1.286-.018a1.5,1.5,0,0,0,.528-.5l1.017-1.351a.669.669,0,0,0,.194-.5A.776.776,0,0,0,391.507,452.1Z" transform="translate(-374.52 -446.982)"/></g><path d="M684.39,439.1s1.741,3.121,1.371,3.638S684.39,439.1,684.39,439.1Z" transform="translate(-546.326 -348.168)" opacity="0.1"/><path d="M710.07,435s1.1,1.919.874,2.3" transform="translate(-566.282 -344.982)" opacity="0.1"/><path d="M739.55,415.09s1.268.892.8,1.471" transform="translate(-589.19 -329.51)" opacity="0.1"/><path d="M745.28,412.9s1.612,1.971,1.077,2.508" transform="translate(-593.643 -327.808)" opacity="0.1"/><path d="M844.7,388.67s.245,3.3,1.215,3.016S844.7,388.67,844.7,388.67Z" transform="translate(-670.899 -308.98)" opacity="0.1"/><path d="M876,651.276l3.877-13.259s3.629,9.753,6.485,13.037l.359-.265-5.147-12.718s-1.685-7.247-.337-9.887c1.07-2.1,4.583-9.14,5.985-11.966a2.494,2.494,0,0,0-2.229-.395,9.113,9.113,0,0,0-.965.33c-1.783,2.827-5.083,8.471-5.328,11.973a43.9,43.9,0,0,0,.392,9.173Z" transform="translate(-695.222 -485.41)" fill="#fff" opacity="0.1"/><path d="M818.2,805.292q4.133-1.67,8.072-3.64,1.7-.849,3.359-1.757c-.011-.276-.038-.557-.078-.845h0s-.283-1.56-3.277-1.442a5.123,5.123,0,0,0-.613.049,8.515,8.515,0,0,0-6.971,5.607A8.991,8.991,0,0,0,818.2,805.292Z" transform="translate(-650.307 -626.75)" fill="#fff" opacity="0.1"/><path d="M827.136,717.312c.1-2.648-1.337-3.556-2.526-3.859a3.284,3.284,0,0,1,1.919-.9,5.1,5.1,0,0,1,1.674,2.675L831.238,730S826.966,721.75,827.136,717.312Z" transform="translate(-655.288 -560.659)" fill="#fff" opacity="0.1"/><path d="M573.481,92.114h2.845a1.993,1.993,0,0,1,0-3.984h23.041a1.993,1.993,0,0,1,0,3.984h-2.844a1.991,1.991,0,1,1,0,3.981H600.5a1.993,1.993,0,0,1,0,3.984H577.462a1.993,1.993,0,0,1,0-3.984h-3.981a1.991,1.991,0,1,1,0-3.981Z" transform="translate(-458.594 -75.437)" fill="#25abf7" opacity="0.1"/><path d="M720.811,228.991h2.845a1.991,1.991,0,0,1,0-3.981H746.7a1.991,1.991,0,0,1,0,3.981h-2.845a1.991,1.991,0,1,1,0,3.981h3.988a1.993,1.993,0,0,1,0,3.984H724.792a1.993,1.993,0,0,1,0-3.984h-3.981a1.991,1.991,0,0,1,0-3.981Z" transform="translate(-573.081 -181.803)" fill="#25abf7" opacity="0.1"/><path d="M574.713,663.706h1.338a.943.943,0,0,1,0-1.886h10.923a.943.943,0,0,1,0,1.886h-1.338a.943.943,0,0,1,0,1.886h1.884a.943.943,0,0,1,0,1.886H576.6a.943.943,0,1,1,0-1.886h-1.886a.943.943,0,1,1,0-1.886Z" transform="translate(-460.366 -521.238)" fill="#25abf7" opacity="0.1"/><path d="M440.49,736.925h1.075a.753.753,0,0,1,0-1.5h8.707a.753.753,0,0,1,0,1.5H449.2a.753.753,0,0,1,0,1.5h1.5a.753.753,0,0,1,0,1.5h-8.716a.753.753,0,1,1,0-1.5h-1.5a.753.753,0,1,1,0-1.5Z" transform="translate(-356.173 -578.431)" fill="#25abf7" opacity="0.1"/><path d="M274.893,609.8h1.349a.943.943,0,1,1,0-1.886h10.908a.943.943,0,1,1,0,1.886h-1.338a.943.943,0,1,1,0,1.886H287.7a.943.943,0,1,1,0,1.886H276.779a.943.943,0,0,1,0-1.886h-1.886a.943.943,0,1,1,0-1.886Z" transform="translate(-227.383 -479.346)" fill="#25abf7" opacity="0.1"/><path d="M701.713,742.026h1.338a.943.943,0,0,1,0-1.886h10.923a.943.943,0,1,1,0,1.886h-1.338a.943.943,0,1,1,0,1.886h1.886a.943.943,0,0,1,0,1.884H703.595a.943.943,0,1,1,0-1.884h-1.881a.943.943,0,0,1,0-1.886Z" transform="translate(-559.055 -582.098)" fill="#25abf7" opacity="0.1"/><path d="M771.81,333.069a.633.633,0,0,0-.205-.818.272.272,0,0,1-.054-.047h0a.319.319,0,0,1,.312-.524h0a.3.3,0,0,1,.067.027.635.635,0,0,0,.82-.2.287.287,0,0,1,.047-.056h0a.319.319,0,0,1,.522.314h0a.423.423,0,0,1-.027.067.633.633,0,0,0,.205.818.361.361,0,0,1,.056.047h0a.319.319,0,0,1-.314.522h0a.223.223,0,0,1-.067-.027.638.638,0,0,0-.82.205.273.273,0,0,1-.045.056h0a.319.319,0,0,1-.524-.314h0A.425.425,0,0,1,771.81,333.069Z" transform="translate(-613.993 -264.451)" fill="#25abf7" opacity="0.3"/><path d="M1088.488,164.389a.631.631,0,0,0-.205-.818.349.349,0,0,1-.053-.047h0a.319.319,0,0,1,.314-.524h0a.332.332,0,0,1,.065.027.633.633,0,0,0,.82-.205.341.341,0,0,1,.047-.053h0a.319.319,0,0,1,.522.314h0a.225.225,0,0,1-.027.065.638.638,0,0,0,.205.82.364.364,0,0,1,.056.047h0a.319.319,0,0,1-.314.522h0a.28.28,0,0,1-.067-.027.635.635,0,0,0-.818.205.589.589,0,0,1-.047.056h0a.319.319,0,0,1-.524-.314h0a.414.414,0,0,1,.027-.067Z" transform="translate(-860.075 -133.374)" fill="#2170fc" opacity="0.999"/><path d="M1093.354,617.44a.633.633,0,0,0-.205-.818.27.27,0,0,1-.053-.047h0a.317.317,0,0,1,.312-.522h0a.222.222,0,0,1,.067.027.637.637,0,0,0,.82-.205.269.269,0,0,1,.045-.056h0a.319.319,0,0,1,.524.314h0a.427.427,0,0,1-.027.067.633.633,0,0,0,.205.818.274.274,0,0,1,.054.047h0a.317.317,0,0,1-.3.513h0a.218.218,0,0,1-.067-.025.635.635,0,0,0-.82.2.286.286,0,0,1-.047.056h0a.319.319,0,0,1-.522-.314h0A.4.4,0,0,1,1093.354,617.44Z" transform="translate(-863.855 -485.427)" fill="#2170fc" opacity="0.999"/><path d="M113.184,63.331a.635.635,0,0,0-.205-.82.27.27,0,0,1-.054-.047h0a.317.317,0,0,1,.312-.522h0a.3.3,0,0,1,.067.027.635.635,0,0,0,.82-.205.365.365,0,0,1,.047-.056h0a.319.319,0,0,1,.522.314h0a.3.3,0,0,1-.027.067.635.635,0,0,0,.205.82.351.351,0,0,1,.056.045h0a.319.319,0,0,1-.314.524h0a.3.3,0,0,1-.067-.027.635.635,0,0,0-.82.205.259.259,0,0,1-.045.054h0a.319.319,0,0,1-.524-.312h0A.3.3,0,0,1,113.184,63.331Z" transform="translate(-102.189 -54.843)" fill="#2170fc" opacity="0.999"/><path d="M65.44,32.968a.633.633,0,0,0-.205-.818.27.27,0,0,1-.053-.047h0a.319.319,0,0,1,.312-.524h0a.3.3,0,0,1,.067.027.635.635,0,0,0,.82-.2.377.377,0,0,1,.045-.056h0a.319.319,0,0,1,.524.305h0a.33.33,0,0,1-.027.065.635.635,0,0,0,.205.827.27.27,0,0,1,.054.047h0a.317.317,0,0,1-.321.524h0a.223.223,0,0,1-.067-.027.638.638,0,0,0-.82.205.283.283,0,0,1-.047.056h0a.319.319,0,0,1-.522-.314h0A.42.42,0,0,1,65.44,32.968Z" transform="translate(-65.09 -31.25)" fill="#2170fc" opacity="0.999"/><path d="M445.81,253.51a.633.633,0,0,0-.205-.818.269.269,0,0,1-.053-.047h0a.319.319,0,0,1,.312-.524h0a.3.3,0,0,1,.067.027.635.635,0,0,0,.82-.2.27.27,0,0,1,.045-.056h0a.319.319,0,0,1,.524.314h0a.332.332,0,0,1-.027.065.635.635,0,0,0,.205.82.269.269,0,0,1,.054.047h0a.317.317,0,0,1-.312.522h0a.223.223,0,0,1-.067-.027.638.638,0,0,0-.82.205.282.282,0,0,1-.047.056h0a.319.319,0,0,1-.522-.314h0A.419.419,0,0,1,445.81,253.51Z" transform="translate(-360.666 -202.626)" fill="#2170fc" opacity="0.999"/><path d="M269.434,371a.633.633,0,0,0-.205-.818.269.269,0,0,1-.053-.047h0a.317.317,0,0,1,.312-.522h0a.224.224,0,0,1,.067.027.638.638,0,0,0,.82-.205.372.372,0,0,1,.045-.056h0a.319.319,0,0,1,.524.314h0a.421.421,0,0,1-.027.067.633.633,0,0,0,.205.818.272.272,0,0,1,.053.047h0a.317.317,0,0,1-.312.522h0a.224.224,0,0,1-.067-.027.638.638,0,0,0-.82.205.375.375,0,0,1-.045.056h0a.319.319,0,0,1-.524-.314h0A.422.422,0,0,1,269.434,371Z" transform="translate(-223.607 -293.924)" fill="#2170fc" opacity="0.999"/><path d="M544.987,216.9a.633.633,0,0,0-.3-.789.28.28,0,0,1-.06-.04h0a.317.317,0,0,1,.25-.555h0a.245.245,0,0,1,.069.018.638.638,0,0,0,.791-.3.356.356,0,0,1,.04-.06h0a.319.319,0,0,1,.555.252h0a.4.4,0,0,1-.02.069.635.635,0,0,0,.3.789.336.336,0,0,1,.058.04h0a.319.319,0,0,1-.25.555h0a.35.35,0,0,1-.069-.018.633.633,0,0,0-.789.3.455.455,0,0,1-.04.06h0a.319.319,0,0,1-.555-.252h0A.263.263,0,0,1,544.987,216.9Z" transform="translate(-437.634 -174.077)" fill="#2170fc" opacity="0.999"/><path d="M995.652,526.591a.878.878,0,0,0,.49-1.063.478.478,0,0,1-.018-.1h0a.446.446,0,0,1,.791-.292h0a.42.42,0,0,1,.049.087.878.878,0,0,0,1.063.49.473.473,0,0,1,.1-.02h0a.446.446,0,0,1,.292.794h0a.414.414,0,0,1-.087.049.892.892,0,0,0-.49,1.063.364.364,0,0,1,.02.1h0a.446.446,0,0,1-.794.292h0a.332.332,0,0,1-.047-.087.878.878,0,0,0-1.063-.49.512.512,0,0,1-.1.02h0a.446.446,0,0,1-.292-.794h0A.462.462,0,0,1,995.652,526.591Z" transform="translate(-788.005 -414.898)" fill="#2170fc" opacity="0.999"/><path d="M386.7,564.461a.892.892,0,0,0,.49-1.063.369.369,0,0,1-.02-.1h0a.446.446,0,0,1,.794-.294h0a.485.485,0,0,1,.049.087.876.876,0,0,0,1.063.49.351.351,0,0,1,.1-.018h0a.446.446,0,0,1,.292.791h0a.4.4,0,0,1-.085.049.878.878,0,0,0-.49,1.063.476.476,0,0,1,.018.1h0a.446.446,0,0,1-.791.292h0a.416.416,0,0,1-.049-.087.892.892,0,0,0-1.063-.49.476.476,0,0,1-.1.02h0a.446.446,0,0,1-.292-.794h0A.418.418,0,0,1,386.7,564.461Z" transform="translate(-314.805 -444.323)" fill="#2170fc" opacity="0.999"/><path d="M577.054,574.171a.878.878,0,0,0,.49-1.063.508.508,0,0,1-.02-.1h0a.446.446,0,0,1,.794-.292h0a.418.418,0,0,1,.049.087.878.878,0,0,0,1.063.488.478.478,0,0,1,.1-.018h0a.446.446,0,0,1,.292.791h0a.415.415,0,0,1-.087.049.878.878,0,0,0-.49,1.063.5.5,0,0,1,.02.1h0a.446.446,0,0,1-.794.292h0a.42.42,0,0,1-.049-.087.892.892,0,0,0-1.063-.49.363.363,0,0,1-.1.02h0a.446.446,0,0,1-.292-.791h0A.416.416,0,0,1,577.054,574.171Z" transform="translate(-462.723 -451.869)" fill="#2170fc" opacity="0.999"/><circle cx="3.678" cy="3.678" r="3.678" transform="translate(23.496 19.36)" fill="#25abf7" opacity="0.1"/><circle cx="3.678" cy="3.678" r="3.678" transform="translate(206.914 23.039)" fill="#25abf7" opacity="0.1"/><circle cx="2.006" cy="2.006" r="2.006" transform="translate(42.556 2.77)" fill="#25abf7" opacity="0.1"/><circle cx="2.006" cy="2.006" r="2.006" transform="translate(234.483 61.156)" fill="#25abf7" opacity="0.1"/><circle cx="2.006" cy="2.006" r="2.006" transform="translate(28.846 163.86)" fill="#25abf7" opacity="0.1"/><circle cx="2.006" cy="2.006" r="2.006" transform="translate(36.537 172.895)" fill="#25abf7" opacity="0.1"/><circle cx="2.006" cy="2.006" r="2.006" transform="translate(21.49 178.341)" fill="#25abf7" opacity="0.1"/></g></svg>